<svg width="25" height="17" viewBox="0 0 25 17" fill="none" xmlns="http://www.w3.org/2000/svg">
<path d="M22.5 0.5H2.5C1.39543 0.5 0.5 1.39543 0.5 2.5V14.5C0.5 15.6046 1.39543 16.5 2.5 16.5H22.5C23.6046 16.5 24.5 15.6046 24.5 14.5V2.5C24.5 1.39543 23.6046 0.5 22.5 0.5Z" fill="#016FD0"/>
<path fill-rule="evenodd" clip-rule="evenodd" d="M14.2642 13.8938V8.19238L24.4117 8.20149V9.77638L23.2388 11.0298L24.4117 12.2947V13.903H22.5391L21.5439 12.8048L20.5558 13.9071L14.2642 13.8938Z" fill="#FFFFFE"/>
<path fill-rule="evenodd" clip-rule="evenodd" d="M14.9419 13.2692V8.82031H18.7142V9.8452H16.1633V10.5409H18.6534V11.5487H16.1633V12.232H18.7142V13.2692H14.9419Z" fill="#016FD0"/>
<path fill-rule="evenodd" clip-rule="evenodd" d="M18.6952 13.2691L20.7825 11.0421L18.6951 8.82031H20.3107L21.5862 10.2303L22.8653 8.82031H24.4115V8.85532L22.3686 11.0421L24.4115 13.206V13.2691H22.8498L21.5516 11.8449L20.2669 13.2691H18.6952Z" fill="#016FD0"/>
<path fill-rule="evenodd" clip-rule="evenodd" d="M14.7374 3.13184H17.1834L18.0426 5.08269V3.13184H21.0624L21.5832 4.59341L22.1057 3.13184H24.4116V8.83323H12.2251L14.7374 3.13184Z" fill="#FFFFFE"/>
<path fill-rule="evenodd" clip-rule="evenodd" d="M15.2006 3.75195L13.2266 8.19712H14.5805L14.9529 7.30696H16.9708L17.343 8.19712H18.7306L16.7648 3.75195H15.2006ZM15.3702 6.30939L15.9622 4.89432L16.5538 6.30939H15.3702Z" fill="#016FD0"/>
<path fill-rule="evenodd" clip-rule="evenodd" d="M18.7122 8.19606V3.75098L20.6153 3.75752L21.5945 6.49025L22.5802 3.75098H24.4118V8.19606L23.2332 8.20649V5.15314L22.1206 8.19606H21.0448L19.9092 5.14271V8.19606H18.7122Z" fill="#016FD0"/>
</svg>
