<svg width="95" height="81" viewBox="0 0 95 81" fill="none" xmlns="http://www.w3.org/2000/svg">
<path opacity="0.1" d="M14.7593 14.0607L33.0043 7.979L35.0178 24.2105L43.113 52.6052L56.468 65.9602L55.2763 68.8367H44.9622C44.9622 68.8367 42.0035 81 30.9497 81C20.2246 81 18.0467 72.6583 18.0467 72.6583L13.8964 71.7131L13.1567 66.9464L4.60953 62.7139L0.541397 50.5506L4.60953 38.3873V26.224L14.7593 14.0607Z" fill="#28B2FF" fill-opacity="0.29"/>
<path fill-rule="evenodd" clip-rule="evenodd" d="M20.9572 68.1381C20.9572 67.8164 21.2179 67.5557 21.5396 67.5557H54.1669C54.4885 67.5557 54.7493 67.8164 54.7493 68.1381C54.7493 68.4597 54.4885 68.7205 54.1669 68.7205H21.5396C21.2179 68.7205 20.9572 68.4597 20.9572 68.1381Z" fill="#28B2FF" fill-opacity="0.29"/>
<path fill-rule="evenodd" clip-rule="evenodd" d="M11.6974 17.5801C11.955 17.7726 12.0078 18.1376 11.8152 18.3952L5.84944 26.3764V37.853C5.84944 37.9276 5.83512 38.0015 5.80725 38.0706L1.20296 49.5006L5.75616 63.0803L12.5771 67.6543C12.8442 67.8335 12.9156 68.1953 12.7364 68.4624C12.5573 68.7295 12.1955 68.8009 11.9284 68.6217L4.94267 63.9372C4.83584 63.8656 4.75574 63.7606 4.71485 63.6387L0.0303271 49.6673C-0.013731 49.5359 -0.00948647 49.3931 0.0422979 49.2645L4.68464 37.7401V26.1828C4.68464 26.0571 4.7253 25.9348 4.80055 25.8341L10.8822 17.6979C11.0748 17.4402 11.4397 17.3875 11.6974 17.5801Z" fill="#28B2FF" fill-opacity="0.29"/>
<path fill-rule="evenodd" clip-rule="evenodd" d="M52.4034 5.16187C52.4387 5.48158 52.2081 5.76936 51.8884 5.80465L33.3437 7.85153L19.1509 13.046C18.8488 13.1566 18.5143 13.0013 18.4038 12.6993C18.2932 12.3972 18.4485 12.0627 18.7505 11.9522L33.0096 6.73346C33.0535 6.71736 33.0993 6.70663 33.1458 6.70149L51.7606 4.64688C52.0803 4.61159 52.3681 4.84216 52.4034 5.16187Z" fill="#28B2FF" fill-opacity="0.29"/>
<path fill-rule="evenodd" clip-rule="evenodd" d="M60.5915 6.22028C60.6777 5.91041 60.9989 5.72916 61.3087 5.81544L82.2658 11.6505C82.3624 11.6774 82.4505 11.7288 82.5214 11.7998L91.8494 21.1277C91.9428 21.2211 92.0017 21.3436 92.0163 21.4749L94.3586 42.4319C94.3711 42.5436 94.351 42.6565 94.3007 42.7571L90.2737 50.8111C90.2096 50.9392 90.1006 51.0392 89.9675 51.092L79.8177 55.1191C79.7372 55.151 79.6506 55.1646 79.5642 55.1588L73.2692 54.7392L71.0453 63.5955C71.0102 63.7353 70.9246 63.8571 70.8048 63.9374L63.8192 68.6219C63.552 68.801 63.1902 68.7297 63.0111 68.4626C62.8319 68.1954 62.9033 67.8336 63.1704 67.6545L69.9701 63.0947L72.2579 53.9839C72.3264 53.7108 72.5805 53.5259 72.8615 53.5446L79.5105 53.9879L89.3313 50.0913L93.1819 42.3902L90.8814 21.8071L81.806 12.7316L60.9963 6.93755C60.6864 6.85128 60.5052 6.53014 60.5915 6.22028Z" fill="#28B2FF" fill-opacity="0.29"/>
<path fill-rule="evenodd" clip-rule="evenodd" d="M61.757 31.4962C62.0452 31.3534 62.3946 31.4714 62.5374 31.7596L73.3446 53.5796C73.4874 53.8678 73.3695 54.2172 73.0812 54.36C72.793 54.5027 72.4436 54.3848 72.3008 54.0966L61.4936 32.2766C61.3508 31.9883 61.4687 31.6389 61.757 31.4962Z" fill="#28B2FF" fill-opacity="0.29"/>
<path fill-rule="evenodd" clip-rule="evenodd" d="M77.6498 39.6017C77.9551 39.7031 78.1203 40.0328 78.0188 40.338L73.3754 54.3094C73.274 54.6146 72.9443 54.7798 72.639 54.6784C72.3338 54.5769 72.1686 54.2473 72.27 53.942L76.9135 39.9707C77.0149 39.6654 77.3446 39.5002 77.6498 39.6017Z" fill="#28B2FF" fill-opacity="0.29"/>
<path fill-rule="evenodd" clip-rule="evenodd" d="M84.1873 39.6355C84.4738 39.4893 84.8246 39.6032 84.9707 39.8898L90.2716 50.2861C90.4177 50.5726 90.3038 50.9234 90.0173 51.0695C89.7307 51.2156 89.38 51.1018 89.2339 50.8152L83.933 40.4189C83.7869 40.1323 83.9007 39.7816 84.1873 39.6355Z" fill="#28B2FF" fill-opacity="0.29"/>
<path fill-rule="evenodd" clip-rule="evenodd" d="M91.9594 21.281C92.1022 21.5692 91.9843 21.9186 91.6961 22.0614L87.0527 24.3626C86.7645 24.5054 86.4151 24.3875 86.2723 24.0993C86.1294 23.8111 86.2473 23.4617 86.5355 23.3189L91.1789 21.0177C91.4671 20.8749 91.8165 20.9928 91.9594 21.281Z" fill="#28B2FF" fill-opacity="0.29"/>
<path fill-rule="evenodd" clip-rule="evenodd" d="M62.9124 28.5253C62.9124 28.2036 63.1731 27.9429 63.4948 27.9429H70.4805C70.8021 27.9429 71.0629 28.2036 71.0629 28.5253C71.0629 28.8469 70.8021 29.1077 70.4805 29.1077H63.4948C63.1731 29.1077 62.9124 28.8469 62.9124 28.5253Z" fill="#28B2FF" fill-opacity="0.29"/>
<path fill-rule="evenodd" clip-rule="evenodd" d="M56.4144 9.2947C56.7318 9.24242 57.0315 9.45733 57.0837 9.77471L59.3849 23.7461C59.4372 24.0635 59.2223 24.3631 58.9049 24.4154C58.5875 24.4677 58.2879 24.2528 58.2356 23.9354L55.9344 9.96401C55.8822 9.64663 56.0971 9.34697 56.4144 9.2947Z" fill="#28B2FF" fill-opacity="0.29"/>
<path fill-rule="evenodd" clip-rule="evenodd" d="M53.4219 8.01314C53.6527 8.23718 53.6582 8.6059 53.4341 8.83669L45.2568 17.2606C45.0327 17.4914 44.664 17.4969 44.4332 17.2728C44.2024 17.0488 44.1969 16.6801 44.421 16.4493L52.5984 8.02538C52.8224 7.79458 53.1911 7.78911 53.4219 8.01314Z" fill="#28B2FF" fill-opacity="0.29"/>
<path fill-rule="evenodd" clip-rule="evenodd" d="M33.0312 6.72619C33.3374 6.6276 33.6655 6.79586 33.7641 7.10203L36.1064 14.3754C36.205 14.6815 36.0367 15.0097 35.7306 15.1083C35.4244 15.2069 35.0963 15.0386 34.9977 14.7324L32.6554 7.45908C32.5568 7.15291 32.7251 6.82479 33.0312 6.72619Z" fill="#28B2FF" fill-opacity="0.29"/>
<path fill-rule="evenodd" clip-rule="evenodd" d="M82.5982 11.8947C82.7732 12.1645 82.6964 12.5252 82.4265 12.7002L62.6611 25.521C62.3913 25.6961 62.0306 25.6192 61.8556 25.3494C61.6805 25.0795 61.7574 24.7188 62.0273 24.5438L81.7927 11.723C82.0625 11.548 82.4232 11.6248 82.5982 11.8947Z" fill="#28B2FF" fill-opacity="0.29"/>
<path fill-rule="evenodd" clip-rule="evenodd" d="M58.8102 24.4641C56.5674 24.4641 54.7492 26.2823 54.7492 28.5251C54.7492 30.768 56.5674 32.5862 58.8102 32.5862C61.0531 32.5862 62.8713 30.768 62.8713 28.5251C62.8713 26.2823 61.0531 24.4641 58.8102 24.4641ZM53.5844 28.5251C53.5844 25.639 55.9241 23.2993 58.8102 23.2993C61.6964 23.2993 64.0361 25.639 64.0361 28.5251C64.0361 31.4113 61.6964 33.751 58.8102 33.751C55.9241 33.751 53.5844 31.4113 53.5844 28.5251Z" fill="#28B2FF" fill-opacity="0.29"/>
<path fill-rule="evenodd" clip-rule="evenodd" d="M58.8102 64.0772C56.5674 64.0772 54.7492 65.8953 54.7492 68.1382C54.7492 70.381 56.5674 72.1992 58.8102 72.1992C61.0531 72.1992 62.8713 70.381 62.8713 68.1382C62.8713 65.8953 61.0531 64.0772 58.8102 64.0772ZM53.5844 68.1382C53.5844 65.252 55.9241 62.9124 58.8102 62.9124C61.6964 62.9124 64.0361 65.252 64.0361 68.1382C64.0361 71.0243 61.6964 73.364 58.8102 73.364C55.9241 73.364 53.5844 71.0243 53.5844 68.1382Z" fill="#28B2FF" fill-opacity="0.29"/>
<path fill-rule="evenodd" clip-rule="evenodd" d="M56.5091 1.1648C54.2663 1.1648 52.4481 2.98299 52.4481 5.22583C52.4481 7.46867 54.2663 9.28686 56.5091 9.28686C58.7519 9.28686 60.5701 7.46867 60.5701 5.22583C60.5701 2.98299 58.7519 1.1648 56.5091 1.1648ZM51.2833 5.22583C51.2833 2.33968 53.623 0 56.5091 0C59.3952 0 61.7349 2.33968 61.7349 5.22583C61.7349 8.11197 59.3952 10.4517 56.5091 10.4517C53.623 10.4517 51.2833 8.11197 51.2833 5.22583Z" fill="#28B2FF" fill-opacity="0.29"/>
<path fill-rule="evenodd" clip-rule="evenodd" d="M16.8961 64.0772C14.6533 64.0772 12.8351 65.8953 12.8351 68.1382C12.8351 70.381 14.6533 72.1992 16.8961 72.1992C19.1389 72.1992 20.9571 70.381 20.9571 68.1382C20.9571 65.8953 19.1389 64.0772 16.8961 64.0772ZM11.6703 68.1382C11.6703 65.252 14.01 62.9124 16.8961 62.9124C19.7822 62.9124 22.1219 65.252 22.1219 68.1382C22.1219 71.0243 19.7822 73.364 16.8961 73.364C14.01 73.364 11.6703 71.0243 11.6703 68.1382Z" fill="#28B2FF" fill-opacity="0.29"/>
<path fill-rule="evenodd" clip-rule="evenodd" d="M21.5396 36.0933C19.2967 36.0933 17.4785 37.9115 17.4785 40.1543C17.4785 42.3971 19.2967 44.2153 21.5396 44.2153C23.7824 44.2153 25.6006 42.3971 25.6006 40.1543C25.6006 37.9115 23.7824 36.0933 21.5396 36.0933ZM16.3137 40.1543C16.3137 37.2681 18.6534 34.9285 21.5396 34.9285C24.4257 34.9285 26.7654 37.2681 26.7654 40.1543C26.7654 43.0404 24.4257 45.3801 21.5396 45.3801C18.6534 45.3801 16.3137 43.0404 16.3137 40.1543Z" fill="#28B2FF" fill-opacity="0.29"/>
<path fill-rule="evenodd" clip-rule="evenodd" d="M49.113 58.3969C49.3413 58.1703 49.71 58.1716 49.9367 58.3998L55.7307 64.2349C55.9573 64.4632 55.956 64.8319 55.7278 65.0586C55.4995 65.2852 55.1308 65.2839 54.9042 65.0556L49.1101 59.2205C48.8835 58.9923 48.8848 58.6235 49.113 58.3969Z" fill="#28B2FF" fill-opacity="0.29"/>
<path fill-rule="evenodd" clip-rule="evenodd" d="M55.8799 31.4847C56.1745 31.6138 56.3087 31.9573 56.1796 32.2519L50.0568 46.2232C49.9277 46.5178 49.5842 46.652 49.2896 46.5229C48.995 46.3938 48.8609 46.0503 48.99 45.7557L55.1127 31.7843C55.2418 31.4897 55.5853 31.3556 55.8799 31.4847Z" fill="#28B2FF" fill-opacity="0.29"/>
<path fill-rule="evenodd" clip-rule="evenodd" d="M38.9714 32.8785C39.2904 32.8379 39.582 33.0636 39.6226 33.3827L40.7732 42.423C40.8138 42.7421 40.5881 43.0337 40.269 43.0743C39.9499 43.1149 39.6583 42.8892 39.6177 42.5701L38.4671 33.5298C38.4265 33.2107 38.6523 32.9191 38.9714 32.8785Z" fill="#28B2FF" fill-opacity="0.29"/>
<path fill-rule="evenodd" clip-rule="evenodd" d="M46.6289 24.8471C46.7312 24.5422 47.0613 24.3778 47.3663 24.4801L54.3519 26.8223C54.6569 26.9246 54.8212 27.2547 54.719 27.5597C54.6167 27.8646 54.2866 28.029 53.9817 27.9267L46.996 25.5845C46.691 25.4822 46.5267 25.1521 46.6289 24.8471Z" fill="#28B2FF" fill-opacity="0.29"/>
<path fill-rule="evenodd" clip-rule="evenodd" d="M58.8102 32.5862C59.1319 32.5862 59.3926 32.8469 59.3926 33.1686V63.4536C59.3926 63.7752 59.1319 64.036 58.8102 64.036C58.4886 64.036 58.2278 63.7752 58.2278 63.4536V33.1686C58.2278 32.8469 58.4886 32.5862 58.8102 32.5862Z" fill="#28B2FF" fill-opacity="0.29"/>
<path fill-rule="evenodd" clip-rule="evenodd" d="M44.8388 67.5557C45.1605 67.5557 45.4212 67.8164 45.4212 68.1381C45.4212 71.7088 43.5139 74.7717 40.7705 76.9227C38.0293 79.0719 34.4103 80.3496 30.8675 80.3496C30.5458 80.3496 30.2851 80.0888 30.2851 79.7672C30.2851 79.4455 30.5458 79.1848 30.8675 79.1848C34.1459 79.1848 37.5126 77.9969 40.0518 76.0061C42.5887 74.017 44.2564 71.2653 44.2564 68.1381C44.2564 67.8164 44.5172 67.5557 44.8388 67.5557Z" fill="#28B2FF" fill-opacity="0.29"/>
<path fill-rule="evenodd" clip-rule="evenodd" d="M19.2367 72.6802C19.1887 72.4069 18.9502 72.1992 18.6631 72.1992C18.3415 72.1992 18.0807 72.46 18.0807 72.7816H18.6631C18.0807 72.7816 18.0807 72.7825 18.0807 72.7833L18.0807 72.785L18.0808 72.7885L18.0809 72.7953L18.0814 72.8091C18.0818 72.8183 18.0824 72.8276 18.0832 72.8369C18.0849 72.8556 18.0874 72.8746 18.0907 72.894C18.0973 72.9326 18.1073 72.9734 18.1209 73.0168C18.1478 73.1028 18.1911 73.2053 18.2582 73.33C18.3915 73.5776 18.6339 73.9399 19.0801 74.4712L19.0801 74.4712L19.0847 74.4765C21.9552 77.8114 26.0081 80.3497 30.8675 80.3497C31.1892 80.3497 31.4499 80.089 31.4499 79.7673C31.4499 79.4457 31.1892 79.1849 30.8675 79.1849C26.4414 79.1849 22.6876 76.8757 19.9698 73.7193C19.5546 73.2248 19.3661 72.9305 19.2838 72.7777C19.2636 72.7403 19.2507 72.713 19.2428 72.6947C19.2403 72.6889 19.2383 72.684 19.2367 72.6802Z" fill="#28B2FF" fill-opacity="0.29"/>
<path fill-rule="evenodd" clip-rule="evenodd" d="M34.8769 57.3907C35.0255 57.676 34.9146 58.0277 34.6293 58.1763L20.6579 65.4496C20.3726 65.5981 20.0209 65.4872 19.8724 65.2019C19.7238 64.9166 19.8347 64.5649 20.12 64.4164L34.0914 57.1431C34.3767 56.9946 34.7284 57.1054 34.8769 57.3907Z" fill="#28B2FF" fill-opacity="0.29"/>
<path fill-rule="evenodd" clip-rule="evenodd" d="M25.5327 41.5015C25.7645 41.2786 26.1332 41.2857 26.3562 41.5175L33.6295 49.0785C33.8525 49.3103 33.8453 49.679 33.6135 49.902C33.3817 50.125 33.013 50.1178 32.79 49.886L25.5167 42.325C25.2937 42.0932 25.3009 41.7245 25.5327 41.5015Z" fill="#28B2FF" fill-opacity="0.29"/>
<path fill-rule="evenodd" clip-rule="evenodd" d="M18.7006 15.7684C18.8241 15.4714 19.1649 15.3307 19.4619 15.4542L29.9405 19.81C30.2375 19.9334 30.3782 20.2743 30.2547 20.5713C30.1312 20.8683 29.7904 21.009 29.4934 20.8855L19.0148 16.5298C18.7178 16.4063 18.5771 16.0654 18.7006 15.7684Z" fill="#28B2FF" fill-opacity="0.29"/>
<path fill-rule="evenodd" clip-rule="evenodd" d="M31.3341 30.5188C31.5266 30.7765 31.4737 31.1414 31.216 31.3339L24.2304 36.5526C23.9727 36.7452 23.6077 36.6923 23.4152 36.4346C23.2227 36.1769 23.2756 35.812 23.5332 35.6195L30.5189 30.4008C30.7766 30.2083 31.1416 30.2611 31.3341 30.5188Z" fill="#28B2FF" fill-opacity="0.29"/>
<path fill-rule="evenodd" clip-rule="evenodd" d="M19.5812 43.7928C19.8412 43.9821 19.8985 44.3464 19.7092 44.6064L5.73783 63.7965C5.54851 64.0565 5.18424 64.1138 4.92421 63.9245C4.66417 63.7352 4.60684 63.3709 4.79616 63.1109L18.7675 43.9208C18.9569 43.6608 19.3211 43.6034 19.5812 43.7928Z" fill="#28B2FF" fill-opacity="0.29"/>
<path fill-rule="evenodd" clip-rule="evenodd" d="M17.4539 40.7073C17.6024 40.9927 17.4913 41.3444 17.206 41.4928L0.851254 49.9989C0.565892 50.1473 0.214244 50.0363 0.0658264 49.7509C-0.0825908 49.4655 0.0284253 49.1139 0.313788 48.9655L16.6685 40.4594C16.9539 40.311 17.3055 40.422 17.4539 40.7073Z" fill="#28B2FF" fill-opacity="0.29"/>
<path fill-rule="evenodd" clip-rule="evenodd" d="M4.80773 25.8246C5.00554 25.571 5.3715 25.5257 5.62514 25.7235L18.6925 35.9144C18.9461 36.1122 18.9914 36.4782 18.7936 36.7318C18.5958 36.9855 18.2298 37.0307 17.9762 36.8329L4.90882 26.642C4.65518 26.4442 4.60992 26.0782 4.80773 25.8246Z" fill="#28B2FF" fill-opacity="0.29"/>
<path opacity="0.4" fill-rule="evenodd" clip-rule="evenodd" d="M79.8084 29.1361C78.8522 29.1361 78.077 29.9113 78.077 30.8675C78.077 31.8237 78.8522 32.5989 79.8084 32.5989C80.7646 32.5989 81.5398 31.8237 81.5398 30.8675C81.5398 29.9113 80.7646 29.1361 79.8084 29.1361ZM72.2529 30.8675C72.2529 26.6947 75.6356 23.312 79.8084 23.312C83.9812 23.312 87.3639 26.6947 87.3639 30.8675C87.3639 35.0403 83.9812 38.423 79.8084 38.423C75.6356 38.423 72.2529 35.0403 72.2529 30.8675Z" fill="#28B2FF" fill-opacity="0.29"/>
<path opacity="0.4" fill-rule="evenodd" clip-rule="evenodd" d="M42.5377 50.0931C41.5815 50.0931 40.8063 50.8683 40.8063 51.8245C40.8063 52.7807 41.5815 53.5559 42.5377 53.5559C43.4939 53.5559 44.2691 52.7807 44.2691 51.8245C44.2691 50.8683 43.4939 50.0931 42.5377 50.0931ZM34.9823 51.8245C34.9823 47.6517 38.365 44.269 42.5377 44.269C46.7105 44.269 50.0932 47.6517 50.0932 51.8245C50.0932 55.9973 46.7105 59.38 42.5377 59.38C38.365 59.38 34.9823 55.9973 34.9823 51.8245Z" fill="#28B2FF" fill-opacity="0.29"/>
<path fill-rule="evenodd" clip-rule="evenodd" d="M14.5539 10.4927C12.311 10.4927 10.4928 12.3109 10.4928 14.5537C10.4928 16.7966 12.311 18.6147 14.5539 18.6147C16.7967 18.6147 18.6149 16.7966 18.6149 14.5537C18.6149 12.3109 16.7967 10.4927 14.5539 10.4927ZM9.32803 14.5537C9.32803 11.6676 11.6677 9.32788 14.5539 9.32788C17.44 9.32788 19.7797 11.6676 19.7797 14.5537C19.7797 17.4399 17.44 19.7795 14.5539 19.7795C11.6677 19.7795 9.32803 17.4399 9.32803 14.5537Z" fill="#28B2FF" fill-opacity="0.29"/>
<path opacity="0.4" fill-rule="evenodd" clip-rule="evenodd" d="M37.8532 22.1092C36.897 22.1092 36.1218 22.8844 36.1218 23.8406C36.1218 24.7968 36.897 25.572 37.8532 25.572C38.8094 25.572 39.5846 24.7968 39.5846 23.8406C39.5846 22.8844 38.8094 22.1092 37.8532 22.1092ZM30.2977 23.8406C30.2977 19.6679 33.6804 16.2852 37.8532 16.2852C42.0259 16.2852 45.4086 19.6679 45.4086 23.8406C45.4086 28.0134 42.0259 31.3961 37.8532 31.3961C33.6804 31.3961 30.2977 28.0134 30.2977 23.8406Z" fill="#28B2FF" fill-opacity="0.29"/>
</svg>
