<svg width="25" height="17" viewBox="0 0 25 17" fill="none" xmlns="http://www.w3.org/2000/svg">
<path d="M22.4972 16.2499L22.4994 16.2499C23.4545 16.2581 24.2381 15.4773 24.25 14.5042L24.25 2.5063C24.2462 2.03569 24.0589 1.58617 23.7297 1.2568C23.4014 0.928269 22.9589 0.746149 22.4972 0.750071L2.50064 0.750062C2.04109 0.746149 1.59858 0.928269 1.27028 1.2568C0.941145 1.58617 0.753838 2.03569 0.750008 2.50426L0.75 14.4937C0.753838 14.9643 0.941145 15.4138 1.27028 15.7432C1.59858 16.0717 2.04109 16.2538 2.50277 16.2499H22.4972ZM22.4962 16.7499C22.4958 16.7499 22.4955 16.7499 22.4951 16.7499L22.4972 16.7499H22.4962Z" fill="white" stroke="black" stroke-opacity="0.2" stroke-width="0.5"/>
<path d="M13.1123 16.5002H22.4971C23.0239 16.5046 23.5309 16.2995 23.9065 15.9301C24.2821 15.5607 24.4955 15.0573 24.4999 14.5305V12.1719C20.9561 14.2062 17.1127 15.667 13.1123 16.5002Z" fill="#F27712"/>
<path d="M23.6725 9.79692H22.82L21.8601 8.53072H21.769V9.79692H21.0738V6.65209H22.1C22.9028 6.65209 23.3663 6.98313 23.3663 7.57899C23.3663 8.06727 23.0766 8.38175 22.5552 8.48106L23.6725 9.79692ZM22.6463 7.60382C22.6463 7.29761 22.4145 7.14037 21.9842 7.14037H21.769V8.09209H21.9676C22.4145 8.09209 22.6463 7.92658 22.6463 7.60382ZM18.6407 6.65209H20.6104V7.18175H19.3359V7.8852H20.5607V8.42313H19.3359V9.27554H20.6104V9.8052H18.6407V6.65209ZM16.4063 9.87968L14.9001 6.64382H15.6614L16.6132 8.76244L17.5732 6.64382H18.318L16.7952 9.87968H16.4228H16.4063ZM10.1083 9.87141C9.04902 9.87141 8.22143 9.1514 8.22143 8.21623C8.22143 7.30589 9.06557 6.56934 10.1249 6.56934C10.4228 6.56934 10.6711 6.62727 10.9773 6.75968V7.48796C10.7454 7.26013 10.4334 7.13236 10.1083 7.13209C9.44626 7.13209 8.94143 7.61209 8.94143 8.21623C8.94143 8.85347 9.43798 9.30865 10.1414 9.30865C10.4559 9.30865 10.6959 9.20934 10.9773 8.96106V9.68934C10.6628 9.82175 10.398 9.87141 10.1083 9.87141ZM8.00626 8.83692C8.00626 9.44934 7.50143 9.87141 6.77315 9.87141C6.2435 9.87141 5.86281 9.68934 5.54005 9.27554L5.99522 8.88658C6.15246 9.16796 6.41729 9.30865 6.74833 9.30865C7.06281 9.30865 7.28626 9.1183 7.28626 8.87003C7.28626 8.72934 7.22005 8.62175 7.07936 8.53899C6.9251 8.46413 6.76446 8.4032 6.59936 8.35692C5.94557 8.15003 5.72212 7.92658 5.72212 7.48796C5.72212 6.97485 6.20212 6.58589 6.83109 6.58589C7.22833 6.58589 7.58419 6.71003 7.88212 6.94175L7.51798 7.35554C7.37366 7.19732 7.16938 7.1072 6.95522 7.10727C6.65729 7.10727 6.44212 7.25623 6.44212 7.45485C6.44212 7.62037 6.56626 7.71141 6.98005 7.85209C7.77453 8.10037 8.00626 8.33209 8.00626 8.8452V8.83692ZM4.58833 6.65209H5.2835V9.8052H4.58833V6.65209ZM2.35384 9.8052H1.32764V6.65209H2.35384C3.47936 6.65209 4.25729 7.29761 4.25729 8.22451C4.25729 8.69623 4.02557 9.14313 3.62005 9.44106C3.27246 9.68934 2.8835 9.8052 2.34557 9.8052H2.35384ZM3.16488 7.4383C2.93315 7.25623 2.66833 7.19003 2.21315 7.19003H2.02281V9.27554H2.21315C2.66005 9.27554 2.94143 9.19278 3.16488 9.02727C3.40488 8.82865 3.54557 8.53072 3.54557 8.22451C3.54557 7.9183 3.40488 7.62865 3.16488 7.4383Z" fill="black"/>
<path d="M12.9137 6.56934C12.0034 6.56934 11.2585 7.29761 11.2585 8.19968C11.2585 9.15968 11.9703 9.87968 12.9137 9.87968C13.8406 9.87968 14.5689 9.1514 14.5689 8.22451C14.5689 7.29761 13.8489 6.56934 12.9137 6.56934Z" fill="#F27712"/>
</svg>
