<svg width="23" height="24" viewBox="0 0 23 24" fill="none" xmlns="http://www.w3.org/2000/svg">
<path d="M19.8725 9.53709C19.9936 10.7734 19.8382 12.0224 19.4173 13.1911C18.9964 14.3598 18.3206 15.4201 17.4389 16.2952L17.4359 16.2982L11.8137 21.9523C11.7741 21.9922 11.7264 22.0245 11.6745 22.0461C11.6226 22.0677 11.567 22.079 11.5107 22.079C11.4545 22.079 11.3988 22.0677 11.3469 22.0461C11.295 22.0245 11.2479 21.9928 11.2083 21.953L11.2069 21.9514L5.56338 16.2973L5.56126 16.2952C4.67959 15.4201 4.00377 14.3598 3.58282 13.1911C3.16194 12.0225 3.00642 10.7749 3.12754 9.53874C3.25125 8.29333 3.64923 7.09076 4.2929 6.01743C4.93641 4.94431 5.80956 4.02699 6.84962 3.33133C8.05986 2.52868 9.4573 2.05301 10.9059 1.95062C12.3549 1.84822 13.8058 2.12277 15.1172 2.74758C16.4286 3.37239 17.5559 4.32613 18.3891 5.51596C19.2225 6.70578 19.7334 8.09112 19.8725 9.53709ZM11.0483 20.5971L11.5001 21.0489L11.9518 20.5971L16.8499 15.6991C17.6416 14.9079 18.2475 13.9505 18.6238 12.8964C19 11.8422 19.1371 10.7176 19.0252 9.60398C18.9129 8.48215 18.5534 7.3991 17.9727 6.43267C17.392 5.46622 16.6046 4.64039 15.6668 4.01448L15.6656 4.01372C14.4312 3.19368 12.9821 2.75624 11.5001 2.75624C10.0181 2.75624 8.56901 3.19368 7.33453 4.01371L7.33317 4.01463C6.39254 4.64296 5.6033 5.47246 5.02248 6.44314C4.44172 7.41376 4.08389 8.5013 3.97483 9.62712C3.86645 10.737 4.00529 11.8571 4.38138 12.9069C4.75751 13.9569 5.36157 14.9104 6.15016 15.699L11.0483 20.5971ZM9.19292 6.94946C9.87564 6.49328 10.6783 6.24973 11.4994 6.24959C12.6001 6.25221 13.6551 6.69065 14.4335 7.46902C15.2118 8.24742 15.6503 9.3024 15.6529 10.4032C15.6527 11.2243 15.4092 12.0268 14.953 12.7095C14.4967 13.3925 13.8481 13.9247 13.0893 14.239C12.3305 14.5534 11.4955 14.6355 10.6899 14.4753C9.88435 14.3151 9.1444 13.9196 8.56363 13.3388C7.98285 12.758 7.58733 12.0181 7.42709 11.2125C7.26686 10.407 7.3491 9.57199 7.66341 8.81317C7.97773 8.05435 8.51 7.40577 9.19292 6.94946ZM9.66618 13.147C10.209 13.5097 10.8472 13.7033 11.5001 13.7033C12.3755 13.7033 13.2151 13.3556 13.8342 12.7365C14.4533 12.1174 14.801 11.2778 14.801 10.4024C14.801 9.74951 14.6074 9.11131 14.2448 8.56847C13.882 8.02563 13.3665 7.60255 12.7633 7.3527C12.1601 7.10287 11.4964 7.0375 10.8561 7.16487C10.2158 7.29224 9.62762 7.60661 9.16597 8.06826C8.70432 8.52991 8.38995 9.11807 8.26258 9.75839C8.13521 10.3987 8.20058 11.0624 8.45042 11.6656C8.70026 12.2688 9.12334 12.7843 9.66618 13.147Z" fill="white"/>
<path d="M11.6745 22.0461C11.7264 22.0245 11.7741 21.9922 11.8137 21.9523L17.4359 16.2982L17.4389 16.2952C18.3206 15.4201 18.9964 14.3598 19.4173 13.1911C19.8382 12.0224 19.9936 10.7734 19.8725 9.53709C19.7334 8.09112 19.2225 6.70578 18.3891 5.51596C17.5559 4.32613 16.4286 3.37239 15.1172 2.74758C13.8058 2.12277 12.3549 1.84822 10.9059 1.95062C9.4573 2.05301 8.05986 2.52868 6.84962 3.33133C5.80956 4.02699 4.93641 4.94431 4.2929 6.01743C3.64923 7.09076 3.25125 8.29333 3.12754 9.53874C3.00642 10.7749 3.16194 12.0225 3.58282 13.1911C4.00377 14.3598 4.67959 15.4201 5.56126 16.2952L5.56338 16.2973L11.2069 21.9514L11.2083 21.953C11.2479 21.9928 11.295 22.0245 11.3469 22.0461M11.6745 22.0461L11.9202 22.6359M11.6745 22.0461C11.6226 22.0677 11.567 22.079 11.5107 22.079C11.4545 22.079 11.3988 22.0677 11.3469 22.0461M11.3469 22.0461L11.1012 22.6359M11.0483 20.5971L11.5001 21.0489L11.9518 20.5971L16.8499 15.6991C17.6416 14.9079 18.2475 13.9505 18.6238 12.8964C19 11.8422 19.1371 10.7176 19.0252 9.60398C18.9129 8.48215 18.5534 7.3991 17.9727 6.43267C17.392 5.46622 16.6046 4.64039 15.6668 4.01448L15.6656 4.01372C14.4312 3.19368 12.9821 2.75624 11.5001 2.75624C10.0181 2.75624 8.56901 3.19368 7.33453 4.01371L7.33317 4.01463C6.39254 4.64296 5.6033 5.47246 5.02248 6.44314C4.44172 7.41376 4.08389 8.5013 3.97483 9.62712C3.86645 10.737 4.00529 11.8571 4.38138 12.9069C4.75751 13.9569 5.36157 14.9104 6.15016 15.699L11.0483 20.5971ZM9.19292 6.94946C9.87564 6.49328 10.6783 6.24973 11.4994 6.24959C12.6001 6.25221 13.6551 6.69065 14.4335 7.46902C15.2118 8.24742 15.6503 9.3024 15.6529 10.4032C15.6527 11.2243 15.4092 12.0268 14.953 12.7095C14.4967 13.3925 13.8481 13.9247 13.0893 14.239C12.3305 14.5534 11.4955 14.6355 10.6899 14.4753C9.88435 14.3151 9.1444 13.9196 8.56363 13.3388C7.98285 12.7581 7.58733 12.0181 7.42709 11.2125C7.26686 10.407 7.3491 9.57199 7.66341 8.81317C7.97773 8.05435 8.51 7.40577 9.19292 6.94946ZM9.66618 13.147C10.209 13.5097 10.8472 13.7033 11.5001 13.7033C12.3755 13.7033 13.2151 13.3556 13.8342 12.7365C14.4533 12.1174 14.801 11.2778 14.801 10.4024C14.801 9.74951 14.6074 9.11131 14.2448 8.56847C13.882 8.02563 13.3665 7.60255 12.7633 7.3527C12.1601 7.10287 11.4964 7.0375 10.8561 7.16487C10.2158 7.29224 9.62762 7.60661 9.16597 8.06826C8.70432 8.52991 8.38995 9.11807 8.26258 9.75839C8.13521 10.3987 8.20058 11.0624 8.45042 11.6656C8.70026 12.2688 9.12334 12.7843 9.66618 13.147Z" stroke="#8A8A8A" stroke-width="0.888889"/>
</svg>
