<svg width="16" height="17" viewBox="0 0 16 17" fill="none" xmlns="http://www.w3.org/2000/svg">
<path d="M14.1891 6.16534L10.2219 5.58878L8.44844 1.99346C8.4 1.89503 8.32031 1.81534 8.22187 1.7669C7.975 1.64503 7.675 1.74659 7.55156 1.99346L5.77812 5.58878L1.81094 6.16534C1.70156 6.18096 1.60156 6.23253 1.525 6.31065C1.43244 6.40579 1.38143 6.53378 1.38319 6.6665C1.38495 6.79922 1.43933 6.92581 1.53437 7.01846L4.40469 9.8169L3.72656 13.7685C3.71066 13.8604 3.72083 13.9549 3.75592 14.0414C3.79102 14.1278 3.84963 14.2027 3.92511 14.2575C4.00059 14.3123 4.08992 14.3449 4.18297 14.3515C4.27602 14.3582 4.36907 14.3386 4.45156 14.295L8 12.4294L11.5484 14.295C11.6453 14.3466 11.7578 14.3638 11.8656 14.345C12.1375 14.2982 12.3203 14.0403 12.2734 13.7685L11.5953 9.8169L14.4656 7.01846C14.5437 6.9419 14.5953 6.8419 14.6109 6.73253C14.6531 6.45909 14.4625 6.20596 14.1891 6.16534Z" fill="#FEA250"/>
</svg>
