<svg width="28" height="23" viewBox="0 0 28 23" fill="none" xmlns="http://www.w3.org/2000/svg">
<g clip-path="url(#clip0_275_2283)">
<path d="M25.8125 1.1875H1.4375C0.918945 1.1875 0.5 1.60645 0.5 2.125V20.875C0.5 21.3936 0.918945 21.8125 1.4375 21.8125H25.8125C26.3311 21.8125 26.75 21.3936 26.75 20.875V2.125C26.75 1.60645 26.3311 1.1875 25.8125 1.1875ZM24.6406 4.43359V19.7031H2.60938V4.43359L1.80078 3.80371L2.95215 2.32422L4.20605 3.2998H23.0469L24.3008 2.32422L25.4521 3.80371L24.6406 4.43359ZM23.0469 3.29688L13.625 10.6211L4.20312 3.29688L2.94922 2.32129L1.79785 3.80078L2.60645 4.43066L12.6143 12.2119C12.9021 12.4355 13.2561 12.5569 13.6206 12.5569C13.9851 12.5569 14.3391 12.4355 14.627 12.2119L24.6406 4.43359L25.4492 3.80371L24.2979 2.32422L23.0469 3.29688Z" fill="#2091F9"/>
</g>
<defs>
<clipPath id="clip0_275_2283">
<rect width="27" height="22" fill="white" transform="translate(0.5 0.5)"/>
</clipPath>
</defs>
</svg>
