<svg width="22" height="22" viewBox="0 0 22 22" fill="none" xmlns="http://www.w3.org/2000/svg">
<path d="M1.36998 1.37056C1.68639 1.05454 2.11529 0.877043 2.56248 0.877043C3.00967 0.877043 3.43857 1.05454 3.75498 1.37056L11 8.61556L18.245 1.37056C18.4512 1.14843 18.7136 0.986042 19.0044 0.90051C19.2952 0.814978 19.6037 0.809467 19.8974 0.884557C20.1911 0.959646 20.4591 1.11256 20.6731 1.32718C20.8872 1.5418 21.0394 1.81018 21.1137 2.10406C21.1889 2.3974 21.1837 2.70559 21.0985 2.99621C21.0134 3.28683 20.8516 3.54914 20.63 3.75556L13.385 11.0006L20.63 18.2456C20.8521 18.4518 21.0145 18.7142 21.1 19.005C21.1856 19.2958 21.1911 19.6043 21.116 19.898C21.0409 20.1916 20.888 20.4596 20.6734 20.6737C20.4587 20.8878 20.1904 21.04 19.8965 21.1143C19.6031 21.1895 19.2949 21.1843 19.0043 21.0991C18.7137 21.014 18.4514 20.8521 18.245 20.6306L11 13.3856L3.75498 20.6306C3.43489 20.9285 3.01178 21.0907 2.57456 21.0832C2.13735 21.0756 1.72009 20.8989 1.41048 20.5901C1.10168 20.2805 0.924933 19.8632 0.91738 19.426C0.909828 18.9888 1.07206 18.5656 1.36998 18.2456L8.61498 11.0006L1.36998 3.75556C1.05397 3.43915 0.876465 3.01025 0.876465 2.56306C0.876465 2.11587 1.05397 1.68696 1.36998 1.37056Z" fill="#252525"/>
</svg>
