<svg width="41" height="37" viewBox="0 0 41 37" fill="none" xmlns="http://www.w3.org/2000/svg">
<path d="M35.2304 5.16797H5.77131C5.06285 5.16797 4.49048 5.74034 4.49048 6.4488V35.9079C4.49048 36.6164 5.06285 37.1887 5.77131 37.1887H35.2304C35.9389 37.1887 36.5113 36.6164 36.5113 35.9079V6.4488C36.5113 5.74034 35.9389 5.16797 35.2304 5.16797ZM31.532 14.514H28.9744C26.9691 14.514 26.5808 15.4667 26.5808 16.8676V19.9536H31.3679L30.7435 24.7847H26.5808V37.1887H21.5896V24.7887H17.4149V19.9536H21.5896V16.3913C21.5896 12.2566 24.1152 10.0031 27.8056 10.0031C29.5748 10.0031 31.0917 10.1352 31.536 10.1952V14.514H31.532Z" fill="#2091F9"/>
</svg>
