<svg width="41" height="37" viewBox="0 0 41 37" fill="none" xmlns="http://www.w3.org/2000/svg">
<path d="M35.2182 5.16797H5.75907C5.05061 5.16797 4.47824 5.74034 4.47824 6.4488V35.9079C4.47824 36.6164 5.05061 37.1887 5.75907 37.1887H35.2182C35.9266 37.1887 36.499 36.6164 36.499 35.9079V6.4488C36.499 5.74034 35.9266 5.16797 35.2182 5.16797ZM13.9764 32.4537H9.22532V17.1718H13.9764V32.4537ZM11.6029 15.0824C11.0582 15.0824 10.5258 14.9209 10.0729 14.6183C9.62008 14.3157 9.26712 13.8856 9.0587 13.3824C8.85027 12.8793 8.79573 12.3256 8.90199 11.7914C9.00825 11.2572 9.27052 10.7665 9.65564 10.3814C10.0408 9.99627 10.5314 9.734 11.0656 9.62774C11.5998 9.52149 12.1535 9.57602 12.6567 9.78445C13.1599 9.99288 13.59 10.3458 13.8926 10.7987C14.1951 11.2516 14.3567 11.784 14.3567 12.3286C14.3526 13.8496 13.1198 15.0824 11.6029 15.0824ZM31.7639 32.4537H27.0169V25.0209C27.0169 23.2477 26.9848 20.9702 24.5473 20.9702C22.0777 20.9702 21.6974 22.8995 21.6974 24.8928V32.4537H16.9543V17.1718H21.5093V19.2611H21.5733C22.2057 18.0603 23.7547 16.7915 26.0683 16.7915C30.8794 16.7915 31.7639 19.9576 31.7639 24.0722V32.4537Z" fill="#2091F9"/>
</svg>
