<svg width="463" height="594" viewBox="0 0 463 594" fill="none" xmlns="http://www.w3.org/2000/svg">
<path opacity="0.1" fill-rule="evenodd" clip-rule="evenodd" d="M74.1162 55.2449C64.32 55.2449 56.3786 63.0419 56.3786 72.66C56.3786 82.2782 64.32 90.0752 74.1162 90.0752C83.9125 90.0752 91.8539 82.2781 91.8539 72.66C91.8539 63.0419 83.9125 55.2449 74.1162 55.2449ZM34.977 72.66C34.977 51.437 52.5002 34.2324 74.1162 34.2324C95.7322 34.2324 113.256 51.437 113.256 72.66C113.256 93.883 95.7322 111.088 74.1162 111.088C52.5002 111.088 34.977 93.883 34.977 72.66Z" fill="#28B2FF" fill-opacity="0.11"/>
<path fill-rule="evenodd" clip-rule="evenodd" d="M302.379 62.0778C170.36 62.0778 63.3382 167.154 63.3382 296.772C63.3382 426.391 170.36 531.467 302.379 531.467C434.398 531.467 541.42 426.391 541.42 296.772C541.42 167.154 434.398 62.0778 302.379 62.0778ZM56.2044 296.772C56.2044 163.286 166.42 55.0737 302.379 55.0737C438.337 55.0737 548.554 163.286 548.554 296.772C548.554 430.259 438.337 538.471 302.379 538.471C166.42 538.471 56.2044 430.259 56.2044 296.772Z" fill="#28B2FF" fill-opacity="0.11"/>
<path fill-rule="evenodd" clip-rule="evenodd" d="M214.774 129.98C191.87 172.486 177.595 231.45 177.595 296.772C177.595 362.094 191.87 421.059 214.774 463.565C237.763 506.229 268.91 531.467 302.379 531.467C335.849 531.467 366.995 506.229 389.984 463.565C412.888 421.059 427.163 362.094 427.163 296.772C427.163 231.45 412.888 172.486 389.984 129.98C366.995 87.3157 335.849 62.0778 302.379 62.0778C268.91 62.0778 237.763 87.3157 214.774 129.98ZM208.469 126.704C231.933 83.1579 264.962 55.0737 302.379 55.0737C339.796 55.0737 372.825 83.1579 396.289 126.704C419.839 170.408 434.296 230.542 434.296 296.772C434.296 363.003 419.839 423.137 396.289 466.841C372.825 510.387 339.796 538.471 302.379 538.471C264.962 538.471 231.933 510.387 208.469 466.841C184.919 423.137 170.462 363.003 170.462 296.772C170.462 230.542 184.919 170.408 208.469 126.704Z" fill="#28B2FF" fill-opacity="0.11"/>
<path fill-rule="evenodd" clip-rule="evenodd" d="M298.812 534.969V58.5757H305.946V534.969H298.812Z" fill="#28B2FF" fill-opacity="0.11"/>
<path fill-rule="evenodd" clip-rule="evenodd" d="M544.735 300.769H59.7713V293.765H544.735V300.769Z" fill="#28B2FF" fill-opacity="0.11"/>
<path fill-rule="evenodd" clip-rule="evenodd" d="M97.27 167.006H509.25V174.01H97.27V167.006Z" fill="#28B2FF" fill-opacity="0.11"/>
<path fill-rule="evenodd" clip-rule="evenodd" d="M97.27 419.287H507.488V426.291H97.27V419.287Z" fill="#28B2FF" fill-opacity="0.11"/>
<path opacity="0.4" fill-rule="evenodd" clip-rule="evenodd" d="M113.41 237.256H234.395V356.288H113.41V237.256ZM149.08 272.277V321.268H198.726V272.277H149.08Z" fill="#28B2FF" fill-opacity="0.11"/>
</svg>
