<svg width="139" height="139" viewBox="0 0 139 139" fill="none" xmlns="http://www.w3.org/2000/svg">
<path opacity="0.1" d="M69.0442 22.5874L101.829 35.655L36.2596 63.5248L3.47501 48.7804L69.0442 22.5874Z" fill="#28B2FF"/>
<path opacity="0.1" fill-rule="evenodd" clip-rule="evenodd" d="M31.9454 93.6326L33.9823 89.1572L69.0443 105.115L104.106 89.1572L106.143 93.6326L69.0443 110.517L31.9454 93.6326Z" fill="#28B2FF"/>
<path opacity="0.1" fill-rule="evenodd" clip-rule="evenodd" d="M31.9454 83.803L33.9823 79.3276L69.0443 95.2854L104.106 79.3276L106.143 83.803L69.0443 100.688L31.9454 83.803Z" fill="#28B2FF"/>
<path fill-rule="evenodd" clip-rule="evenodd" d="M68.9144 21.8263C69.1096 21.7485 69.3273 21.7487 69.5224 21.8268L134.918 48.0198C135.223 48.142 135.426 48.4346 135.433 48.7631C135.44 49.0916 135.25 49.3926 134.95 49.5277L69.5546 79.0165C69.3409 79.1128 69.0962 79.1131 68.8823 79.0171L3.13961 49.5283C2.83928 49.3936 2.64869 49.0923 2.65569 48.7632C2.66268 48.4341 2.8659 48.1411 3.17169 48.0193L68.9144 21.8263ZM5.57699 48.8253L69.2168 77.3708L132.521 48.8252L69.2169 23.47L5.57699 48.8253Z" fill="#28B2FF"/>
<path fill-rule="evenodd" clip-rule="evenodd" d="M32.5193 71.0471C32.753 70.8961 33.0474 70.8741 33.301 70.9886L69.2161 87.1991L104.785 70.9898C105.038 70.8742 105.334 70.8955 105.568 71.0463C105.802 71.1971 105.944 71.4567 105.944 71.7355V101.224C105.944 101.545 105.757 101.836 105.465 101.97L69.5585 118.391C69.343 118.489 69.0954 118.49 68.8796 118.392L32.6257 101.971C32.3326 101.838 32.1443 101.546 32.1443 101.224V71.7355C32.1443 71.4573 32.2855 71.198 32.5193 71.0471ZM33.7833 73.0045V100.696L69.2161 116.745L104.305 100.698V73.0096L69.5575 88.8447C69.3426 88.9426 69.0959 88.9431 68.8806 88.8459L33.7833 73.0045Z" fill="#28B2FF"/>
<path opacity="0.4" d="M128.889 51.2671V77.8648L120.679 81.9702V54.9099L128.889 51.2671Z" fill="#28B2FF"/>
</svg>
