<svg width="41" height="37" viewBox="0 0 41 37" fill="none" xmlns="http://www.w3.org/2000/svg">
<path d="M37.165 10.8635C35.9402 11.3919 34.6074 11.7721 33.2345 11.9202C34.6599 11.0734 35.7273 9.73558 36.2364 8.15776C34.8989 8.95343 33.4336 9.51137 31.9056 9.80683C31.267 9.12409 30.4946 8.58019 29.6366 8.20902C28.7785 7.83785 27.8533 7.64737 26.9184 7.64943C23.1359 7.64943 20.094 10.7154 20.094 14.4779C20.094 15.0062 20.158 15.5345 20.2621 16.0429C14.5984 15.7467 9.54713 13.0409 6.18895 8.89824C5.57705 9.94338 5.2564 11.1334 5.26034 12.3445C5.26034 14.714 6.46513 16.8034 8.30232 18.0322C7.21963 17.9895 6.1623 17.6919 5.21632 17.1636V17.2477C5.21632 20.5658 7.56184 23.3156 10.6879 23.948C10.1009 24.1005 9.49712 24.1785 8.8907 24.1802C8.44641 24.1802 8.02614 24.1361 7.60186 24.0761C8.46642 26.7818 10.9841 28.7471 13.982 28.8112C11.6365 30.6484 8.69858 31.7291 5.50851 31.7291C4.93613 31.7291 4.40779 31.709 3.85944 31.645C6.8854 33.5863 10.4757 34.707 14.3422 34.707C26.8944 34.707 33.7628 24.3082 33.7628 15.2824C33.7628 14.9862 33.7628 14.69 33.7428 14.3938C35.0717 13.4212 36.2364 12.2164 37.165 10.8635Z" fill="#2091F9"/>
</svg>
