<svg width="26" height="33" viewBox="0 0 26 33" fill="none" xmlns="http://www.w3.org/2000/svg">
<g clip-path="url(#clip0_275_2271)">
<path d="M12.9998 19.6667C16.4927 19.6667 19.3332 16.8262 19.3332 13.3333C19.3332 9.8405 16.4927 7 12.9998 7C9.507 7 6.6665 9.8405 6.6665 13.3333C6.6665 16.8262 9.507 19.6667 12.9998 19.6667ZM12.9998 10.1667C14.7463 10.1667 16.1665 11.5869 16.1665 13.3333C16.1665 15.0798 14.7463 16.5 12.9998 16.5C11.2534 16.5 9.83317 15.0798 9.83317 13.3333C9.83317 11.5869 11.2534 10.1667 12.9998 10.1667Z" fill="#2091F9"/>
<path d="M11.7487 32.0387C12.0166 32.23 12.3377 32.3329 12.667 32.3329C12.9963 32.3329 13.3173 32.23 13.5853 32.0387C14.0667 31.6983 25.3796 23.5298 25.3337 13.3332C25.3337 6.34909 19.6511 0.666504 12.667 0.666504C5.68291 0.666504 0.000322499 6.34909 0.000322499 13.3253C-0.0455942 23.5298 11.2673 31.6983 11.7487 32.0387ZM12.667 3.83317C17.9062 3.83317 22.167 8.09392 22.167 13.3411C22.2002 20.3679 15.2193 26.6775 12.667 28.7469C10.1162 26.6759 3.13374 20.3648 3.16699 13.3332C3.16699 8.09392 7.42774 3.83317 12.667 3.83317Z" fill="#2091F9"/>
</g>
<defs>
<clipPath id="clip0_275_2271">
<rect width="26" height="32" fill="white" transform="translate(0 0.5)"/>
</clipPath>
</defs>
</svg>
