<svg width="38" height="38" viewBox="0 0 38 38" fill="none" xmlns="http://www.w3.org/2000/svg">
<g clip-path="url(#clip0_248_525)">
<path d="M20.5833 4.75C20.9869 4.75045 21.3751 4.90498 21.6685 5.18201C21.962 5.45904 22.1385 5.83768 22.1622 6.24054C22.1858 6.64341 22.0548 7.0401 21.7957 7.34957C21.5367 7.65904 21.1693 7.85792 20.7686 7.90558L20.5833 7.91667H7.91667V30.0833H30.0833V17.4167C30.0838 17.0131 30.2383 16.6249 30.5153 16.3315C30.7924 16.0381 31.171 15.8615 31.5739 15.8378C31.9767 15.8142 32.3734 15.9452 32.6829 16.2043C32.9924 16.4633 33.1913 16.8307 33.2389 17.2314L33.25 17.4167V30.0833C33.2503 30.8822 32.9485 31.6517 32.4053 32.2375C31.8621 32.8233 31.1175 33.1822 30.3208 33.2421L30.0833 33.25H7.91667C7.11775 33.2503 6.34827 32.9485 5.76247 32.4053C5.17666 31.8621 4.81784 31.1175 4.75792 30.3208L4.75 30.0833V7.91667C4.74975 7.11775 5.05148 6.34827 5.5947 5.76247C6.13793 5.17666 6.8825 4.81784 7.67917 4.75792L7.91667 4.75H20.5833ZM30.4681 5.29308C30.753 5.00912 31.1354 4.84425 31.5374 4.83197C31.9395 4.81969 32.3312 4.96092 32.6329 5.22698C32.9347 5.49303 33.1238 5.86396 33.162 6.26442C33.2001 6.66488 33.0844 7.06485 32.8383 7.38308L32.7069 7.5335L17.0319 23.2069C16.747 23.4909 16.3646 23.6558 15.9626 23.668C15.5605 23.6803 15.1688 23.5391 14.8671 23.273C14.5653 23.007 14.3762 22.636 14.338 22.2356C14.2999 21.8351 14.4156 21.4352 14.6617 21.1169L14.7931 20.9681L30.4681 5.29308Z" fill="white"/>
</g>
<defs>
<clipPath id="clip0_248_525">
<rect width="38" height="38" fill="white"/>
</clipPath>
</defs>
</svg>
