<svg width="50" height="50" viewBox="0 0 50 50" fill="none" xmlns="http://www.w3.org/2000/svg">
<rect width="50" height="50" rx="8" fill="#23BDEE"/>
<path d="M31.9999 28.5H29.6666V30.8333H31.9999M31.9999 23.8333H29.6666V26.1667H31.9999M34.3333 33.1667H24.9999V30.8333H27.3333V28.5H24.9999V26.1667H27.3333V23.8333H24.9999V21.5H34.3333M22.6666 19.1667H20.3333V16.8333H22.6666M22.6666 23.8333H20.3333V21.5H22.6666M22.6666 28.5H20.3333V26.1667H22.6666M22.6666 33.1667H20.3333V30.8333H22.6666M17.9999 19.1667H15.6666V16.8333H17.9999M17.9999 23.8333H15.6666V21.5H17.9999M17.9999 28.5H15.6666V26.1667H17.9999M17.9999 33.1667H15.6666V30.8333H17.9999M24.9999 19.1667V14.5H13.3333V35.5H36.6666V19.1667H24.9999Z" fill="white"/>
</svg>
