<svg width="1440" height="727" viewBox="0 0 1440 727" fill="none" xmlns="http://www.w3.org/2000/svg">
<rect width="1440" height="727" rx="50" fill="#28B2FF"/>
<g opacity="0.6">
<path fill-rule="evenodd" clip-rule="evenodd" d="M711.499 -566.171C798.162 -548.693 891.47 -542.827 948.844 -480.031C1016.42 -406.066 1062.74 -306.571 1039.53 -207.13C1015.58 -104.474 924.278 -29.9468 830.368 27.6121C734.458 86.3968 627.317 124.384 517.444 112.867C393.954 99.9233 255.021 67.0138 201.742 -38.278C149.837 -140.856 221.431 -262.485 272.84 -370.529C313.679 -456.359 369.487 -538.933 458.948 -578.833C540.249 -615.093 626.425 -583.329 711.499 -566.171Z" stroke="white"/>
<path fill-rule="evenodd" clip-rule="evenodd" d="M774.032 -606.789C886.854 -582.376 947.934 -473.23 993.436 -372.569C1033.06 -284.907 1036.28 -187.248 1006.42 -92.6815C977.463 -0.967783 925.014 91.8105 833.804 133.041C748.619 171.548 662.368 111.438 570.788 104.24C449.516 94.7077 300.289 168.601 219.784 84.7777C137.38 -1.02271 174.978 -146.571 220.918 -260.049C262.242 -362.123 355.892 -429.194 452.34 -489.656C552.773 -552.616 661.044 -631.239 774.032 -606.789Z" stroke="white"/>
<path fill-rule="evenodd" clip-rule="evenodd" d="M791.035 -582.878C900.868 -583.243 1013.4 -520.004 1051.86 -423.7C1088.19 -332.765 1001.08 -240.503 965.704 -145.598C935.139 -63.608 932.211 29.1533 861.901 85.8582C781.937 150.35 672.132 196.927 576.27 168.483C483.529 140.966 468.099 29.4213 414.483 -46.8963C354.374 -132.456 211.374 -197.092 248.211 -298.481C285.486 -401.076 450.471 -369.479 550.778 -422.033C639.677 -468.609 691.919 -582.548 791.035 -582.878Z" stroke="white"/>
<path fill-rule="evenodd" clip-rule="evenodd" d="M741.821 -597.18C846.015 -581.288 922.572 -496.806 963.188 -404.93C999.593 -322.579 958.439 -232.453 943.142 -141.774C924.442 -30.9224 962.484 108.065 865.392 174.806C767.725 241.942 643.962 165.266 530.602 141.806C416.04 118.097 268.31 135.958 211.483 39.4772C154.823 -56.7212 229.757 -178.43 280.396 -282.998C320.4 -365.602 385.612 -428.025 463.6 -481.126C549.77 -539.799 640.811 -612.585 741.821 -597.18Z" stroke="white"/>
<path fill-rule="evenodd" clip-rule="evenodd" d="M718.534 -556.186C796.965 -529.61 890.241 -533.53 941.48 -471.78C998.416 -403.164 1004.52 -310.77 996.753 -220.895C986.61 -103.521 988.877 31.1558 891.414 107.584C787.542 189.037 639.267 189.405 514.625 157.175C395.11 126.271 294.712 47.5508 244.429 -59.7123C198.36 -157.985 230.334 -270.337 264.224 -376.977C296.755 -479.338 326.468 -603.944 430.418 -644.948C530.771 -684.534 619.784 -589.646 718.534 -556.186Z" stroke="white"/>
<path fill-rule="evenodd" clip-rule="evenodd" d="M699.104 -505.535C807.894 -486.49 962.596 -531.564 1009.43 -437.126C1056.77 -341.663 917.777 -248.736 877.398 -146.022C844.42 -62.1335 877.503 51.6318 798.077 100.503C718.484 149.476 626.292 79.8419 536.353 63.8231C440.263 46.7086 314.113 82.1154 261.594 4.95035C208.838 -72.5634 287.328 -173.552 311.464 -266.604C336.71 -363.936 314.458 -488.11 403.764 -543.156C493.311 -598.35 597.794 -523.271 699.104 -505.535Z" stroke="white"/>
<path fill-rule="evenodd" clip-rule="evenodd" d="M714.45 -540.363C793.047 -519.411 850.332 -467.092 900.868 -407.008C963.4 -332.663 1040.86 -259.228 1033.31 -161.263C1024.62 -48.5287 967.644 76.2161 859.691 127.039C755.446 176.116 647.195 101.957 539.869 71.0417C445.108 43.7455 339.205 35.0657 280.408 -39.8259C216.137 -121.691 184.029 -233.873 221.549 -334.417C257.432 -430.578 363.043 -483.224 461.166 -524.222C543.098 -558.455 631.155 -562.567 714.45 -540.363Z" stroke="white"/>
<path fill-rule="evenodd" clip-rule="evenodd" d="M710.036 -555.033C802.06 -533.8 858.067 -455.279 906.075 -378.483C954.645 -300.789 995.184 -216.453 979.297 -124.313C961.705 -22.279 916.627 91.9404 817.328 136.237C721.881 178.816 623.582 112.443 529.584 76.3026C456.553 48.2237 390.107 14.0865 343.547 -45.9213C290.366 -114.462 235.943 -192.206 254.011 -278.861C272.894 -369.423 352.695 -436.893 435.525 -487.055C519.481 -537.9 616.879 -576.528 710.036 -555.033Z" stroke="white"/>
</g>
<path d="M536.157 303.282H668.094" stroke="url(#paint0_linear_607_174)" stroke-width="20"/>
<path d="M229.155 446.776L449 457" stroke="url(#paint1_linear_607_174)" stroke-width="20"/>
<path d="M181.119 377.671H335.111" stroke="url(#paint2_linear_607_174)" stroke-width="20"/>
<defs>
<linearGradient id="paint0_linear_607_174" x1="602.126" y1="303.282" x2="602.126" y2="304.282" gradientUnits="userSpaceOnUse">
<stop stop-color="#28B2FF"/>
<stop offset="1" stop-color="#1D3F96"/>
</linearGradient>
<linearGradient id="paint1_linear_607_174" x1="339.078" y1="451.888" x2="339.031" y2="452.887" gradientUnits="userSpaceOnUse">
<stop stop-color="#28B2FF"/>
<stop offset="1" stop-color="#1D3F96"/>
</linearGradient>
<linearGradient id="paint2_linear_607_174" x1="258.115" y1="377.671" x2="258.115" y2="378.671" gradientUnits="userSpaceOnUse">
<stop stop-color="#28B2FF"/>
<stop offset="1" stop-color="#1D3F96"/>
</linearGradient>
</defs>
</svg>
