<svg width="529" height="166" viewBox="0 0 529 166" fill="none" xmlns="http://www.w3.org/2000/svg">
<path opacity="0.1" fill-rule="evenodd" clip-rule="evenodd" d="M270.742 77.3092C265.579 77.3092 261.394 82.0404 261.394 87.8765C261.394 93.7126 265.579 98.4438 270.742 98.4438C275.905 98.4438 280.09 93.7126 280.09 87.8765C280.09 82.0404 275.905 77.3092 270.742 77.3092ZM242.681 87.8765C242.681 70.3573 255.244 56.1553 270.742 56.1553C286.24 56.1553 298.803 70.3573 298.803 87.8765C298.803 105.396 286.24 119.598 270.742 119.598C255.244 119.598 242.681 105.396 242.681 87.8765Z" fill="white" fill-opacity="0.27"/>
<path fill-rule="evenodd" clip-rule="evenodd" d="M370.426 63.2934C358.415 63.2934 348.679 74.2998 348.679 87.877C348.679 101.454 358.415 112.461 370.426 112.461C382.437 112.461 392.173 101.454 392.173 87.877C392.173 74.2998 382.437 63.2934 370.426 63.2934ZM342.441 87.877C342.441 70.4055 354.97 56.2422 370.426 56.2422C385.882 56.2422 398.411 70.4054 398.411 87.877C398.411 105.349 385.882 119.512 370.426 119.512C354.97 119.512 342.441 105.349 342.441 87.877Z" fill="white" fill-opacity="0.27"/>
<path fill-rule="evenodd" clip-rule="evenodd" d="M120.886 119.76C108.875 119.76 99.1385 130.767 99.1385 144.344C99.1385 157.921 108.875 168.928 120.886 168.928C132.896 168.928 142.633 157.921 142.633 144.344C142.633 130.767 132.896 119.76 120.886 119.76ZM92.9009 144.344C92.9009 126.873 105.43 112.709 120.886 112.709C136.341 112.709 148.871 126.873 148.871 144.344C148.871 161.816 136.341 175.979 120.886 175.979C105.43 175.979 92.9009 161.816 92.9009 144.344Z" fill="white" fill-opacity="0.27"/>
<path fill-rule="evenodd" clip-rule="evenodd" d="M370.426 112.46C372.148 112.46 373.545 114.038 373.545 115.986V200.563C373.545 201.495 373.218 202.39 372.635 203.051L310.36 273.698C309.144 275.077 307.17 275.081 305.95 273.707C304.729 272.332 304.726 270.1 305.942 268.721L367.307 199.106V115.986C367.307 114.038 368.703 112.46 370.426 112.46Z" fill="white" fill-opacity="0.27"/>
<path fill-rule="evenodd" clip-rule="evenodd" d="M112.098 -26.9601C113.027 -28.5999 114.955 -29.078 116.406 -28.028L272.424 84.9073C273.319 85.5554 273.861 86.6745 273.861 87.8763V250.065C273.861 252.013 272.464 253.591 270.742 253.591C269.02 253.591 267.623 252.013 267.623 250.065V89.8052L113.042 -22.0898C111.592 -23.1398 111.169 -25.3203 112.098 -26.9601Z" fill="white" fill-opacity="0.27"/>
<path fill-rule="evenodd" clip-rule="evenodd" d="M71.1535 -0.225586C72.876 -0.225586 74.2723 1.35289 74.2723 3.30003V86.4167L98.225 113.494C99.4429 114.87 99.4429 117.103 98.225 118.48C97.007 119.856 95.0323 119.856 93.8143 118.48L68.9481 90.37C68.3633 89.7088 68.0347 88.8121 68.0347 87.877V3.30003C68.0347 1.35289 69.431 -0.225586 71.1535 -0.225586Z" fill="white" fill-opacity="0.27"/>
<path fill-rule="evenodd" clip-rule="evenodd" d="M329.052 -92.7357C330.275 -91.3647 330.283 -89.1325 329.07 -87.7498L148.186 118.469C146.973 119.852 144.999 119.861 143.776 118.49C142.553 117.119 142.544 114.887 143.757 113.504L324.641 -92.7146C325.854 -94.0973 327.828 -94.1067 329.052 -92.7357Z" fill="white" fill-opacity="0.27"/>
<path fill-rule="evenodd" clip-rule="evenodd" d="M470.33 77.2231C465.125 77.2231 460.906 81.9927 460.906 87.8765C460.906 93.7603 465.125 98.5301 470.33 98.5301C475.535 98.5301 479.754 93.7603 479.754 87.8765C479.754 81.9927 475.535 77.2231 470.33 77.2231ZM454.668 87.8765C454.668 78.0984 461.68 70.1719 470.33 70.1719C478.98 70.1719 485.992 78.0984 485.992 87.8765C485.992 97.6544 478.98 105.581 470.33 105.581C461.68 105.581 454.668 97.6544 454.668 87.8765Z" fill="white" fill-opacity="0.27"/>
<path fill-rule="evenodd" clip-rule="evenodd" d="M392.393 87.8772C392.393 85.93 393.79 84.3516 395.512 84.3516H445.244C446.967 84.3516 448.363 85.93 448.363 87.8772C448.363 89.8243 446.967 91.4028 445.244 91.4028H395.512C393.79 91.4028 392.393 89.8243 392.393 87.8772Z" fill="white" fill-opacity="0.27"/>
<path fill-rule="evenodd" clip-rule="evenodd" d="M267.623 87.8772C267.623 85.93 269.019 84.3516 270.742 84.3516H345.56C347.282 84.3516 348.679 85.93 348.679 87.8772C348.679 89.8243 347.282 91.4028 345.56 91.4028H270.742C269.019 91.4028 267.623 89.8243 267.623 87.8772Z" fill="white" fill-opacity="0.27"/>
<path fill-rule="evenodd" clip-rule="evenodd" d="M370.426 -70.873C372.148 -70.873 373.545 -69.2946 373.545 -67.3474V59.7671C373.545 61.7142 372.148 63.2927 370.426 63.2927C368.703 63.2927 367.307 61.7142 367.307 59.7671V-67.3474C367.307 -69.2946 368.703 -70.873 370.426 -70.873Z" fill="white" fill-opacity="0.27"/>
</svg>
