<svg width="555" height="453" viewBox="0 0 555 453" fill="none" xmlns="http://www.w3.org/2000/svg">
<path d="M414.929 320.175L371.621 294.751L337.603 345.377C357.477 361.962 390.864 374.024 408.117 370.34C443.523 362.782 515.072 262.253 524.999 254.6C558.797 228.545 569.783 218.657 527.492 238.903C487.173 258.205 508.528 238.903 498.649 238.903C486.782 239.732 490.715 250.264 495.12 257.812L414.929 320.175Z" fill="url(#paint0_linear_269_1329)"/>
<path d="M169.197 281.661C181.415 273.176 229.696 257.892 250.899 251.311L273.333 253.758C287.467 257.262 317.785 263.236 331.73 268.89C345.676 274.543 370.984 292.573 394.594 307.609L389.02 326.915C384.013 344.254 370.773 358.006 353.636 363.665C349.226 391.71 345.423 437.303 346.051 451.437L181.977 451.31L174.465 381.915L140.678 385.534L112.139 363.665C147.875 301.852 153.923 292.267 169.197 281.661Z" fill="url(#paint1_linear_269_1329)"/>
<path d="M122.258 441.121C70.2721 434.529 104.083 381.841 113.3 364.44C124.448 373.825 138.215 379.55 152.73 380.84L170.644 382.431L163.308 399.354L242.507 417.895L253.618 448.719C245.704 447.372 186.905 449.318 122.258 441.121Z" fill="url(#paint2_linear_269_1329)"/>
<path d="M256.429 112.98C258.987 108.353 266.325 101.876 275.209 112.98H256.429Z" fill="#30235B"/>
<ellipse cx="260.694" cy="271.49" rx="28.3177" ry="20.1793" fill="#28B2FF"/>
<path d="M237.491 270.405L241.449 230.992H279.986L284.412 270.405C282.865 275.047 275.561 284.462 262.034 284.462C244.793 284.462 238.596 275.047 237.491 270.405Z" fill="url(#paint3_linear_269_1329)"/>
<mask id="mask0_269_1329" style="mask-type:alpha" maskUnits="userSpaceOnUse" x="237" y="230" width="48" height="55">
<path d="M237.491 270.405L241.449 230.992H279.986L284.421 270.485C282.874 275.126 275.544 284.463 262.017 284.463C244.777 284.463 238.596 275.047 237.491 270.405Z" fill="url(#paint4_linear_269_1329)"/>
</mask>
<g mask="url(#mask0_269_1329)">
<path opacity="0.1" d="M293.874 232.5C259.029 275.614 239.558 240.949 229.5 235.749L236.411 206.603L277.67 201.676L293.874 232.5Z" fill="black"/>
</g>
<path d="M260.025 246.814C218.466 246.814 211.32 187.159 224.16 159.873C253.051 124.561 289.166 145.16 303.611 159.873C307.089 182.612 310.924 246.814 260.025 246.814Z" fill="url(#paint5_linear_269_1329)"/>
<path d="M304.321 201.177L296.179 195.179L297.438 190.714L306.738 196.846L304.321 201.177Z" fill="#111111"/>
<path d="M219.491 199.438L227.633 193.439L226.373 188.974L217.074 195.106L219.491 199.438Z" fill="#111111"/>
<path d="M226.941 163.459C256.405 182.655 289.069 171.457 301.717 163.459C299.054 171.858 302.827 188.004 305.046 195.027C324.218 170.061 317.95 156.579 312.42 152.959C311.498 140.516 300.187 109.405 262.213 110.88C224.239 112.355 216.87 139.287 217.945 149.272C203.567 168.812 212.122 187.917 219.056 195.027C226.941 179.719 226.762 168.98 226.941 163.459Z" fill="#30235B"/>
<g filter="url(#filter0_d_269_1329)">
<path d="M265.231 130.092C221.245 128.619 211.447 157.546 210.132 174.344C210.027 175.689 208.927 176.748 207.578 176.748C206.138 176.748 204.991 175.548 205.119 174.114C207.038 152.576 218.521 114.941 265.231 117.536C312.393 120.156 321.618 157.7 320.171 178.629C320.094 179.749 319.148 180.596 318.025 180.596C316.801 180.596 315.818 179.602 315.769 178.379C315.076 161.014 303.531 131.202 265.231 130.092Z" fill="white"/>
</g>
<g filter="url(#filter1_d_269_1329)">
<rect x="321.052" y="187.464" width="5.97013" height="22.9104" rx="2.98507" transform="rotate(10.0542 321.052 187.464)" fill="#24C28A"/>
</g>
<g filter="url(#filter2_d_269_1329)">
<rect x="308.226" y="172.611" width="18.3897" height="47.7258" rx="9.19487" transform="rotate(10.0542 308.226 172.611)" fill="white"/>
</g>
<g filter="url(#filter3_d_269_1329)">
<rect width="5.97013" height="22.9104" rx="2.98507" transform="matrix(-0.984643 0.17458 0.17458 0.984643 202.308 187.464)" fill="#24C28A"/>
</g>
<g filter="url(#filter4_d_269_1329)">
<rect width="18.3897" height="47.7258" rx="9.19487" transform="matrix(-0.984643 0.17458 0.17458 0.984643 214.967 172.611)" fill="white"/>
</g>
<mask id="mask1_269_1329" style="mask-type:alpha" maskUnits="userSpaceOnUse" x="198" y="174" width="24" height="48">
<rect width="18.3897" height="47.7258" rx="9.19487" transform="matrix(-0.984643 0.17458 0.17458 0.984643 214.967 172.611)" fill="white"/>
</mask>
<g mask="url(#mask1_269_1329)">
<rect x="206.307" y="172.611" width="23.9209" height="51.8073" transform="rotate(-10.0977 206.307 172.611)" fill="#E8E8E8"/>
</g>
<mask id="mask2_269_1329" style="mask-type:alpha" maskUnits="userSpaceOnUse" x="301" y="174" width="24" height="48">
<rect x="308.226" y="172.611" width="18.3897" height="47.7258" rx="9.19487" transform="rotate(10.0542 308.226 172.611)" fill="white"/>
</mask>
<g mask="url(#mask2_269_1329)">
<rect width="23.9209" height="51.8073" transform="matrix(-0.98451 -0.175326 -0.175326 0.98451 318.001 172.611)" fill="#E8E8E8"/>
</g>
<path opacity="0.5" d="M242.118 208.145C236.238 208.145 233.278 203.512 232.525 201.443C231.66 199.712 230.977 195.204 233.025 191.623C235.63 187.07 247.874 185.8 252.162 192.233C256.451 198.665 252.162 208.145 242.118 208.145Z" fill="#E6FCFF"/>
<path opacity="0.5" d="M281.075 208.145C286.955 208.145 289.915 203.512 290.668 201.443C291.533 199.712 292.216 195.204 290.168 191.623C287.563 187.07 275.319 185.8 271.031 192.233C266.742 198.665 271.031 208.145 281.075 208.145Z" fill="#E6FCFF"/>
<path fill-rule="evenodd" clip-rule="evenodd" d="M255.199 190.813C245.611 182.392 236.95 185.955 231.818 188.066L231.818 188.066C231.247 188.301 230.72 188.518 230.24 188.698L226.936 188.704C226.381 188.705 225.933 189.158 225.938 189.713L225.963 192.595C225.968 193.144 226.414 193.586 226.963 193.586L229.376 193.586C227.693 208.033 238.348 211.9 246.868 209.295C254.465 206.974 256.499 200.405 256.905 196.283C258.53 192.683 265.654 194.346 265.936 196.203C265.943 196.246 265.95 196.294 265.958 196.348L265.958 196.349C266.293 198.61 267.977 210.002 280.802 210.018C291.307 210.031 294.157 200.646 294.268 195.952L297.078 195.927C297.63 195.922 298.074 195.471 298.069 194.918L298.038 191.433C298.033 190.881 297.581 190.437 297.029 190.442L294.219 190.467C287.376 183.535 272.677 184.184 267.5 190.704C261.788 189.386 256.92 190.228 255.199 190.813ZM242.118 208.145C236.238 208.145 233.278 203.511 232.525 201.442C231.66 199.712 230.977 195.204 233.025 191.623C235.63 187.069 247.874 185.799 252.162 192.232C256.451 198.665 252.162 208.145 242.118 208.145ZM290.669 201.442C289.917 203.511 286.956 208.145 281.076 208.145C271.032 208.145 266.744 198.665 271.032 192.232C275.321 185.799 287.564 187.069 290.169 191.623C292.217 195.204 291.534 199.712 290.669 201.442Z" fill="#111111"/>
<path d="M178.501 445.589C178.501 444.985 178.992 444.494 179.597 444.494H347.929C348.988 444.494 349.846 445.352 349.846 446.411C349.846 449.587 347.272 452.161 344.096 452.161H185.073C181.444 452.161 178.501 449.219 178.501 445.589Z" fill="#B4B4B4"/>
<rect x="178.501" y="332.701" width="171.345" height="114.641" rx="2.94666" fill="url(#paint6_linear_269_1329)"/>
<circle cx="264.174" cy="390.021" r="12.1856" fill="white"/>
<path fill-rule="evenodd" clip-rule="evenodd" d="M142.428 185.214C142.645 181.498 143.386 178.386 144.004 176.657C145.217 179.69 145.817 182.602 146.019 185.258C148.675 185.461 151.587 186.06 154.62 187.274C152.891 187.891 149.779 188.632 146.063 188.849C145.856 192.795 144.841 195.861 144.004 197.431C142.985 194.578 142.52 191.643 142.398 188.879C139.634 188.758 136.699 188.293 133.846 187.274C135.417 186.436 138.482 185.422 142.428 185.214Z" fill="url(#paint7_linear_269_1329)"/>
<path fill-rule="evenodd" clip-rule="evenodd" d="M113.112 160.762C113.257 158.289 113.75 156.218 114.161 155.067C114.969 157.086 115.368 159.024 115.503 160.791C117.27 160.926 119.209 161.326 121.228 162.133C120.077 162.544 118.006 163.037 115.532 163.182C115.394 165.808 114.719 167.849 114.161 168.894C113.483 166.995 113.173 165.042 113.093 163.202C111.253 163.121 109.299 162.811 107.4 162.133C108.445 161.576 110.486 160.9 113.112 160.762Z" fill="url(#paint8_linear_269_1329)"/>
<path fill-rule="evenodd" clip-rule="evenodd" d="M65.8773 143.342C66.0947 139.626 66.8356 136.515 67.4532 134.785C68.6664 137.818 69.2661 140.73 69.4688 143.386C72.1243 143.588 75.0362 144.188 78.0693 145.401C76.3401 146.019 73.229 146.76 69.5125 146.977C69.3053 150.923 68.2906 153.989 67.4532 155.559C66.4342 152.706 65.9692 149.771 65.8479 147.007C63.0838 146.885 60.149 146.42 57.2958 145.401C58.866 144.564 61.9317 143.549 65.8773 143.342Z" fill="url(#paint9_linear_269_1329)"/>
<path fill-rule="evenodd" clip-rule="evenodd" d="M69.9212 228.756C70.241 223.289 71.3311 218.712 72.2397 216.167C74.0246 220.63 74.9069 224.914 75.2052 228.821C79.112 229.119 83.3961 230.001 87.8584 231.786C85.3144 232.695 80.7373 233.785 75.2695 234.105C74.9646 239.91 73.4717 244.42 72.2397 246.73C70.7405 242.532 70.0564 238.215 69.878 234.148C65.8113 233.969 61.4935 233.285 57.2959 231.786C59.606 230.554 64.1163 229.061 69.9212 228.756Z" fill="url(#paint10_linear_269_1329)"/>
<circle cx="103.141" cy="196.424" r="2.00767" fill="#2F235A"/>
<circle cx="149.215" cy="138.86" r="2.00767" fill="#FE9076"/>
<circle cx="48.2321" cy="188.454" r="2.00767" fill="#FFA400"/>
<circle cx="138.21" cy="227.389" r="2.00767" fill="#23BB86"/>
<path d="M144.296 130.481C139.757 124.247 126.97 110.931 112.139 107.541" stroke="#FE9076" stroke-width="1.60277" stroke-linecap="round"/>
<path d="M39.7612 183.073C33.0524 179.27 15.9079 172.425 1.00001 175.464" stroke="#FFA400" stroke-width="1.60277" stroke-linecap="round"/>
<path d="M131.319 233.221C127.882 236.254 119.611 244.869 114.03 255.061" stroke="#23BB86" stroke-width="1.60277" stroke-linecap="round"/>
<path fill-rule="evenodd" clip-rule="evenodd" d="M379.403 185.214C379.186 181.498 378.445 178.386 377.827 176.657C376.614 179.69 376.014 182.602 375.811 185.258C373.156 185.461 370.244 186.06 367.211 187.274C368.94 187.891 372.051 188.632 375.768 188.849C375.975 192.795 376.99 195.861 377.827 197.431C378.846 194.578 379.311 191.643 379.432 188.879C382.197 188.758 385.131 188.293 387.984 187.274C386.414 186.436 383.349 185.422 379.403 185.214Z" fill="url(#paint11_linear_269_1329)"/>
<path fill-rule="evenodd" clip-rule="evenodd" d="M408.718 160.762C408.574 158.289 408.081 156.218 407.67 155.067C406.862 157.086 406.463 159.024 406.328 160.791C404.56 160.926 402.622 161.326 400.603 162.133C401.754 162.544 403.825 163.037 406.299 163.182C406.437 165.808 407.112 167.849 407.67 168.894C408.348 166.995 408.657 165.042 408.738 163.202C410.578 163.121 412.531 162.811 414.431 162.133C413.385 161.576 411.345 160.9 408.718 160.762Z" fill="url(#paint12_linear_269_1329)"/>
<path fill-rule="evenodd" clip-rule="evenodd" d="M455.953 143.342C455.736 139.626 454.995 136.515 454.378 134.785C453.164 137.818 452.565 140.73 452.362 143.386C449.706 143.588 446.795 144.188 443.762 145.401C445.491 146.019 448.602 146.76 452.318 146.977C452.525 150.923 453.54 153.989 454.378 155.559C455.397 152.706 455.862 149.771 455.983 147.007C458.747 146.885 461.682 146.42 464.535 145.401C462.965 144.564 459.899 143.549 455.953 143.342Z" fill="url(#paint13_linear_269_1329)"/>
<path fill-rule="evenodd" clip-rule="evenodd" d="M451.91 228.756C451.59 223.289 450.5 218.712 449.591 216.167C447.806 220.63 446.924 224.914 446.626 228.821C442.719 229.119 438.435 230.001 433.972 231.786C436.516 232.695 441.094 233.785 446.561 234.105C446.866 239.91 448.359 244.42 449.591 246.73C451.09 242.532 451.774 238.215 451.953 234.148C456.02 233.969 460.337 233.285 464.535 231.786C462.225 230.554 457.715 229.061 451.91 228.756Z" fill="url(#paint14_linear_269_1329)"/>
<circle cx="2.00767" cy="2.00767" r="2.00767" transform="matrix(-1 0 0 1 420.697 194.417)" fill="#2F235A"/>
<circle cx="2.00767" cy="2.00767" r="2.00767" transform="matrix(-1 0 0 1 374.624 136.852)" fill="#FE9076"/>
<circle cx="2.00767" cy="2.00767" r="2.00767" transform="matrix(-1 0 0 1 475.606 186.446)" fill="#FFA400"/>
<circle cx="2.00767" cy="2.00767" r="2.00767" transform="matrix(-1 0 0 1 385.628 225.381)" fill="#23BB86"/>
<path d="M377.535 130.481C382.074 124.247 394.86 110.931 409.692 107.541" stroke="#FE9076" stroke-width="1.60277" stroke-linecap="round"/>
<path d="M482.07 183.073C488.778 179.27 505.923 172.425 520.831 175.464" stroke="#FFA400" stroke-width="1.60277" stroke-linecap="round"/>
<path d="M390.511 233.221C393.949 236.254 402.22 244.869 407.801 255.061" stroke="#23BB86" stroke-width="1.60277" stroke-linecap="round"/>
<path d="M293.663 61.2461C291.387 57.7295 286.779 59.6453 286.779 63.476C286.779 66.3526 293.096 70.8524 293.663 71.4375C294.235 70.8524 300.238 66.3526 300.238 63.476C300.238 59.6743 295.944 57.7295 293.663 61.2461Z" fill="#FFBCBC"/>
<circle cx="293.508" cy="65.4165" r="15.0753" stroke="#F7F7F7" stroke-width="0.649684"/>
<path d="M239.669 40.2761C237.654 37.1637 233.576 38.8592 233.576 42.2496C233.576 44.7955 239.167 48.778 239.669 49.2958C240.175 48.778 245.487 44.7955 245.487 42.2496C245.487 38.8849 241.688 37.1637 239.669 40.2761Z" fill="#FFBCBC"/>
<circle cx="239.532" cy="43.9669" r="13.3422" stroke="#F7F7F7" stroke-width="0.574998"/>
<path d="M275.302 17.4068C273.924 15.2782 271.135 16.4378 271.135 18.7566C271.135 20.4978 274.959 23.2216 275.302 23.5757C275.648 23.2216 279.282 20.4978 279.282 18.7566C279.282 16.4554 276.683 15.2782 275.302 17.4068Z" fill="#FFBCBC"/>
<circle cx="275.209" cy="19.9314" r="9.12518" stroke="#F7F7F7" stroke-width="0.393259"/>
<path d="M212.36 5.56209C211.232 3.82037 208.95 4.7692 208.95 6.66652C208.95 8.09125 212.079 10.3199 212.36 10.6097C212.643 10.3199 215.616 8.09125 215.616 6.66652C215.616 4.78359 213.49 3.82037 212.36 5.56209Z" fill="#FFBCBC"/>
<circle cx="212.283" cy="7.62745" r="7.46656" stroke="#F7F7F7" stroke-width="0.321779"/>
<path d="M206.814 87.2099C204.352 83.4072 199.37 85.4788 199.37 89.6212C199.37 92.7318 206.201 97.5977 206.814 98.2304C207.432 97.5977 213.923 92.7318 213.923 89.6212C213.923 85.5102 209.281 83.4072 206.814 87.2099Z" fill="#FFBCBC"/>
<circle cx="206.646" cy="91.7194" r="16.3018" stroke="#F7F7F7" stroke-width="0.702541"/>
<defs>
<filter id="filter0_d_269_1329" x="171.109" y="87.4082" width="183.202" height="131.188" filterUnits="userSpaceOnUse" color-interpolation-filters="sRGB">
<feFlood flood-opacity="0" result="BackgroundImageFix"/>
<feColorMatrix in="SourceAlpha" type="matrix" values="0 0 0 0 0 0 0 0 0 0 0 0 0 0 0 0 0 0 127 0" result="hardAlpha"/>
<feOffset dy="4"/>
<feGaussianBlur stdDeviation="17"/>
<feColorMatrix type="matrix" values="0 0 0 0 0.0386285 0 0 0 0 0.0648437 0 0 0 0 0.104167 0 0 0 0.13 0"/>
<feBlend mode="normal" in2="BackgroundImageFix" result="effect1_dropShadow_269_1329"/>
<feBlend mode="normal" in="SourceGraphic" in2="effect1_dropShadow_269_1329" result="shape"/>
</filter>
<filter id="filter1_d_269_1329" x="283.527" y="157.939" width="76.9286" height="90.6514" filterUnits="userSpaceOnUse" color-interpolation-filters="sRGB">
<feFlood flood-opacity="0" result="BackgroundImageFix"/>
<feColorMatrix in="SourceAlpha" type="matrix" values="0 0 0 0 0 0 0 0 0 0 0 0 0 0 0 0 0 0 127 0" result="hardAlpha"/>
<feOffset dy="4"/>
<feGaussianBlur stdDeviation="17"/>
<feColorMatrix type="matrix" values="0 0 0 0 0.0386285 0 0 0 0 0.0648437 0 0 0 0 0.104167 0 0 0 0.13 0"/>
<feBlend mode="normal" in2="BackgroundImageFix" result="effect1_dropShadow_269_1329"/>
<feBlend mode="normal" in="SourceGraphic" in2="effect1_dropShadow_269_1329" result="shape"/>
</filter>
<filter id="filter2_d_269_1329" x="267.356" y="144.074" width="91.5143" height="115.278" filterUnits="userSpaceOnUse" color-interpolation-filters="sRGB">
<feFlood flood-opacity="0" result="BackgroundImageFix"/>
<feColorMatrix in="SourceAlpha" type="matrix" values="0 0 0 0 0 0 0 0 0 0 0 0 0 0 0 0 0 0 127 0" result="hardAlpha"/>
<feOffset dy="4"/>
<feGaussianBlur stdDeviation="17"/>
<feColorMatrix type="matrix" values="0 0 0 0 0.0386285 0 0 0 0 0.0648437 0 0 0 0 0.104167 0 0 0 0.13 0"/>
<feBlend mode="normal" in2="BackgroundImageFix" result="effect1_dropShadow_269_1329"/>
<feBlend mode="normal" in="SourceGraphic" in2="effect1_dropShadow_269_1329" result="shape"/>
</filter>
<filter id="filter3_d_269_1329" x="162.904" y="157.939" width="76.9286" height="90.6514" filterUnits="userSpaceOnUse" color-interpolation-filters="sRGB">
<feFlood flood-opacity="0" result="BackgroundImageFix"/>
<feColorMatrix in="SourceAlpha" type="matrix" values="0 0 0 0 0 0 0 0 0 0 0 0 0 0 0 0 0 0 127 0" result="hardAlpha"/>
<feOffset dy="4"/>
<feGaussianBlur stdDeviation="17"/>
<feColorMatrix type="matrix" values="0 0 0 0 0.0386285 0 0 0 0 0.0648437 0 0 0 0 0.104167 0 0 0 0.13 0"/>
<feBlend mode="normal" in2="BackgroundImageFix" result="effect1_dropShadow_269_1329"/>
<feBlend mode="normal" in="SourceGraphic" in2="effect1_dropShadow_269_1329" result="shape"/>
</filter>
<filter id="filter4_d_269_1329" x="164.323" y="144.074" width="91.5143" height="115.278" filterUnits="userSpaceOnUse" color-interpolation-filters="sRGB">
<feFlood flood-opacity="0" result="BackgroundImageFix"/>
<feColorMatrix in="SourceAlpha" type="matrix" values="0 0 0 0 0 0 0 0 0 0 0 0 0 0 0 0 0 0 127 0" result="hardAlpha"/>
<feOffset dy="4"/>
<feGaussianBlur stdDeviation="17"/>
<feColorMatrix type="matrix" values="0 0 0 0 0.0386285 0 0 0 0 0.0648437 0 0 0 0 0.104167 0 0 0 0.13 0"/>
<feBlend mode="normal" in2="BackgroundImageFix" result="effect1_dropShadow_269_1329"/>
<feBlend mode="normal" in="SourceGraphic" in2="effect1_dropShadow_269_1329" result="shape"/>
</filter>
<linearGradient id="paint0_linear_269_1329" x1="425.976" y1="172.617" x2="428.862" y2="364.365" gradientUnits="userSpaceOnUse">
<stop stop-color="#FFEFE0"/>
<stop offset="1" stop-color="#FFBE99"/>
</linearGradient>
<linearGradient id="paint1_linear_269_1329" x1="253.366" y1="251.311" x2="253.366" y2="451.437" gradientUnits="userSpaceOnUse">
<stop stop-color="#28B2FF"/>
<stop offset="1" stop-color="#1D3F96"/>
</linearGradient>
<linearGradient id="paint2_linear_269_1329" x1="247.635" y1="313.442" x2="118.248" y2="375.452" gradientUnits="userSpaceOnUse">
<stop offset="0.0677966" stop-color="#FFEFE0"/>
<stop offset="1" stop-color="#FFBE99"/>
</linearGradient>
<linearGradient id="paint3_linear_269_1329" x1="259.623" y1="188.594" x2="261.891" y2="260.974" gradientUnits="userSpaceOnUse">
<stop stop-color="#FFEFE0"/>
<stop offset="1" stop-color="#FFBE99"/>
</linearGradient>
<linearGradient id="paint4_linear_269_1329" x1="259.623" y1="188.594" x2="256.445" y2="271.053" gradientUnits="userSpaceOnUse">
<stop stop-color="#FFEFE0"/>
<stop offset="1" stop-color="#FFBE99"/>
</linearGradient>
<linearGradient id="paint5_linear_269_1329" x1="263.391" y1="150.006" x2="263.391" y2="236.923" gradientUnits="userSpaceOnUse">
<stop stop-color="#FFEFE0"/>
<stop offset="1" stop-color="#FFBE99"/>
</linearGradient>
<linearGradient id="paint6_linear_269_1329" x1="299.554" y1="246.662" x2="236.203" y2="473.982" gradientUnits="userSpaceOnUse">
<stop offset="0.0171777" stop-color="white"/>
<stop offset="1" stop-color="#D7D7D7"/>
</linearGradient>
<linearGradient id="paint7_linear_269_1329" x1="144.233" y1="178.868" x2="144.233" y2="198.373" gradientUnits="userSpaceOnUse">
<stop stop-color="#FFE89E"/>
<stop offset="1" stop-color="#FFBF1A"/>
</linearGradient>
<linearGradient id="paint8_linear_269_1329" x1="114.314" y1="156.539" x2="114.314" y2="169.522" gradientUnits="userSpaceOnUse">
<stop stop-color="#FFE89E"/>
<stop offset="1" stop-color="#FFBF1A"/>
</linearGradient>
<linearGradient id="paint9_linear_269_1329" x1="67.6826" y1="136.996" x2="67.6826" y2="156.501" gradientUnits="userSpaceOnUse">
<stop stop-color="#FFE89E"/>
<stop offset="1" stop-color="#FFBF1A"/>
</linearGradient>
<linearGradient id="paint10_linear_269_1329" x1="72.5771" y1="219.42" x2="72.5771" y2="248.117" gradientUnits="userSpaceOnUse">
<stop stop-color="#FFE89E"/>
<stop offset="1" stop-color="#FFBF1A"/>
</linearGradient>
<linearGradient id="paint11_linear_269_1329" x1="377.598" y1="178.868" x2="377.598" y2="198.373" gradientUnits="userSpaceOnUse">
<stop stop-color="#FFE89E"/>
<stop offset="1" stop-color="#FFBF1A"/>
</linearGradient>
<linearGradient id="paint12_linear_269_1329" x1="407.517" y1="156.539" x2="407.517" y2="169.522" gradientUnits="userSpaceOnUse">
<stop stop-color="#FFE89E"/>
<stop offset="1" stop-color="#FFBF1A"/>
</linearGradient>
<linearGradient id="paint13_linear_269_1329" x1="454.148" y1="136.996" x2="454.148" y2="156.501" gradientUnits="userSpaceOnUse">
<stop stop-color="#FFE89E"/>
<stop offset="1" stop-color="#FFBF1A"/>
</linearGradient>
<linearGradient id="paint14_linear_269_1329" x1="449.254" y1="219.42" x2="449.254" y2="248.117" gradientUnits="userSpaceOnUse">
<stop stop-color="#FFE89E"/>
<stop offset="1" stop-color="#FFBF1A"/>
</linearGradient>
</defs>
</svg>
