<svg width="720" height="782" viewBox="0 0 720 782" fill="none" xmlns="http://www.w3.org/2000/svg">
<path opacity="0.1" fill-rule="evenodd" clip-rule="evenodd" d="M211.64 136.478C179.478 200.883 159.187 290.826 159.187 390.93C159.187 491.033 179.478 580.976 211.64 645.381C244.217 710.619 286.659 745.686 329.415 745.686C372.171 745.686 414.613 710.618 447.191 645.381C479.352 580.976 499.643 491.033 499.643 390.93C499.643 290.826 479.352 200.883 447.191 136.478C414.613 71.2408 372.171 36.1736 329.415 36.1736C286.659 36.1736 244.217 71.2408 211.64 136.478ZM186.891 124.12C220.93 55.9546 270.518 8.51074 329.415 8.51074C388.312 8.51074 437.9 55.9546 471.939 124.12C506.394 193.117 527.306 287.468 527.306 390.93C527.306 494.392 506.394 588.742 471.939 657.74C437.9 725.905 388.312 773.349 329.415 773.349C270.518 773.349 220.93 725.905 186.891 657.74C152.436 588.742 131.524 494.392 131.524 390.93C131.524 287.468 152.436 193.117 186.891 124.12Z" fill="#28B2FF" fill-opacity="0.09"/>
<path opacity="0.1" fill-rule="evenodd" clip-rule="evenodd" d="M75.3073 272.983C10.1677 305.594 -24.8728 348.091 -24.8728 390.93C-24.8728 433.769 10.1677 476.266 75.3073 508.877C139.625 541.077 229.446 561.392 329.415 561.392C429.384 561.392 519.206 541.077 583.523 508.877C648.663 476.266 683.703 433.769 683.703 390.93C683.703 348.091 648.663 305.594 583.523 272.983C519.206 240.783 429.384 220.468 329.415 220.468C229.446 220.468 139.625 240.783 75.3073 272.983ZM62.9235 248.246C131.839 213.745 226.078 192.805 329.415 192.805C432.753 192.805 526.991 213.745 595.907 248.246C664 282.336 711.366 331.986 711.366 390.93C711.366 449.873 664 499.523 595.907 533.613C526.991 568.115 432.753 589.055 329.415 589.055C226.078 589.055 131.839 568.115 62.9235 533.613C-5.16986 499.523 -52.5357 449.873 -52.5357 390.93C-52.5357 331.986 -5.16986 282.336 62.9235 248.246Z" fill="#28B2FF" fill-opacity="0.09"/>
<path fill-rule="evenodd" clip-rule="evenodd" d="M56.7351 297.358C80.0267 367.289 130.098 446.431 201.592 517.994C273.085 589.558 352.14 639.671 421.989 662.973C492.129 686.372 551.504 682.343 585.54 648.254C619.576 614.166 623.582 554.714 600.193 484.491C576.902 414.56 526.83 335.418 455.337 263.854C383.844 192.291 304.788 142.178 234.94 118.876C164.799 95.4774 105.424 99.506 71.3885 133.595C37.3526 167.684 33.3461 227.135 56.7351 297.358ZM47.9935 300.277C24.258 229.014 27.0387 164.963 64.8717 127.072C102.705 89.1797 166.673 86.3773 237.853 110.123C309.325 133.966 389.567 184.972 461.852 257.329C534.137 329.686 585.102 410.016 608.935 481.572C632.67 552.836 629.89 616.886 592.057 654.778C554.224 692.669 490.256 695.472 419.076 671.726C347.604 647.883 267.362 596.876 195.077 524.52C122.791 452.163 71.8265 371.833 47.9935 300.277Z" fill="#28B2FF" fill-opacity="0.09"/>
<path fill-rule="evenodd" clip-rule="evenodd" d="M328.442 284.704C315.754 284.704 305.459 295.004 305.459 307.722C305.459 320.439 315.754 330.739 328.442 330.739C341.129 330.739 351.424 320.439 351.424 307.722C351.424 295.004 341.129 284.704 328.442 284.704ZM296.238 307.722C296.238 289.922 310.651 275.483 328.442 275.483C346.232 275.483 360.645 289.922 360.645 307.722C360.645 325.521 346.232 339.96 328.442 339.96C310.651 339.96 296.238 325.521 296.238 307.722Z" fill="#28B2FF" fill-opacity="0.09"/>
<path fill-rule="evenodd" clip-rule="evenodd" d="M319.352 358.487C301.777 358.487 287.28 372.994 287.28 390.605V466.663C287.28 472.958 292.423 478.304 298.901 478.304H358.307C364.462 478.304 369.973 472.94 370.252 466.571V390.605C370.252 372.994 355.755 358.487 338.18 358.487H319.352ZM278.06 390.605C278.06 367.912 296.674 349.266 319.352 349.266H338.18C360.858 349.266 379.473 367.912 379.473 390.605V466.748L379.469 466.833C379.057 477.982 369.656 487.525 358.307 487.525H298.901C287.2 487.525 278.06 477.919 278.06 466.663V390.605Z" fill="#28B2FF" fill-opacity="0.09"/>
<path opacity="0.4" fill-rule="evenodd" clip-rule="evenodd" d="M75.2902 490.481C52.5942 558.623 59.0525 608.877 85.4941 635.359C111.936 661.842 162.123 668.323 230.186 645.617C296.787 623.399 373.47 575.073 443.378 505.096C513.287 435.118 561.573 358.351 583.781 291.672C606.477 223.529 600.019 173.276 573.578 146.793C547.136 120.311 496.948 113.83 428.886 136.535C362.285 158.754 285.602 207.079 215.693 277.057C145.785 347.034 97.4989 423.801 75.2902 490.481ZM31.5816 475.886C56.4975 401.078 109.248 318.374 183.118 244.431C256.988 170.488 339.602 117.694 414.322 92.7671C487.58 68.3283 560.735 68.6784 606.162 114.176C651.59 159.674 651.918 232.923 627.49 306.267C602.574 381.074 549.824 463.779 475.954 537.722C402.084 611.665 319.469 664.459 244.75 689.385C171.492 713.824 98.3368 713.474 52.9094 667.976C7.48203 622.478 7.1531 549.23 31.5816 475.886Z" fill="#28B2FF" fill-opacity="0.09"/>
</svg>
