<svg width="85" height="100" viewBox="0 0 85 100" fill="none" xmlns="http://www.w3.org/2000/svg">
<path opacity="0.1" fill-rule="evenodd" clip-rule="evenodd" d="M15.3115 61.6533H57.0713L64.9344 76.963H7.49438L15.3115 61.6533ZM17.0129 65.1908L12.8082 73.4255H59.6044L55.375 65.1908H17.0129Z" fill="white" fill-opacity="0.39"/>
<path opacity="0.1" fill-rule="evenodd" clip-rule="evenodd" d="M59.6125 61.6533H69.1311L76.9482 76.963H67.4297L59.6125 61.6533ZM64.9264 65.1908L69.1311 73.4255H71.6344L67.4297 65.1908H64.9264Z" fill="white" fill-opacity="0.39"/>
<path fill-rule="evenodd" clip-rule="evenodd" d="M1.62378 79.9362C1.62378 79.6106 1.84814 79.3467 2.12491 79.3467H82.3175C82.5943 79.3467 82.8186 79.6106 82.8186 79.9362V84.6368C82.8186 84.9624 82.5943 85.2264 82.3175 85.2264H2.12491C1.84814 85.2264 1.62378 84.9624 1.62378 84.6368V79.9362ZM2.62604 80.5258V84.0473H81.8164V80.5258H2.62604Z" fill="white" fill-opacity="0.39"/>
<path fill-rule="evenodd" clip-rule="evenodd" d="M11.6932 58.4353C11.7816 58.248 11.9493 58.1318 12.1314 58.1318H72.2758C72.4579 58.1318 72.6257 58.248 72.714 58.4353L82.7204 79.6503C82.8547 79.935 82.7674 80.2939 82.5254 80.4519C82.2834 80.6099 81.9783 80.5071 81.844 80.2224L71.9808 59.311H12.4264L2.56319 80.2224C2.4289 80.5071 2.12386 80.6099 1.88185 80.4519C1.63985 80.2939 1.55252 79.935 1.68681 79.6503L11.6932 58.4353Z" fill="white" fill-opacity="0.39"/>
<path fill-rule="evenodd" clip-rule="evenodd" d="M11.6304 16.2497C11.6304 15.9241 11.8547 15.6602 12.1315 15.6602H72.2759C72.5527 15.6602 72.7771 15.9241 72.7771 16.2497V58.7212C72.7771 59.0468 72.5527 59.3108 72.2759 59.3108C71.9992 59.3108 71.7748 59.0468 71.7748 58.7212V16.8393H12.6326V58.7212C12.6326 59.0468 12.4083 59.3108 12.1315 59.3108C11.8547 59.3108 11.6304 59.0468 11.6304 58.7212V16.2497Z" fill="white" fill-opacity="0.39"/>
<path fill-rule="evenodd" clip-rule="evenodd" d="M21.6721 30.3933C21.6721 30.0677 21.8965 29.8037 22.1733 29.8037H34.1951C34.4718 29.8037 34.6962 30.0677 34.6962 30.3933V44.5366C34.6962 44.8622 34.4718 45.1262 34.1951 45.1262H22.1733C21.8965 45.1262 21.6721 44.8622 21.6721 44.5366V30.3933ZM22.6744 30.9828V43.947H33.6939V30.9828H22.6744Z" fill="white" fill-opacity="0.39"/>
<path fill-rule="evenodd" clip-rule="evenodd" d="M39.7048 30.3933C39.7048 30.0677 39.9292 29.8037 40.206 29.8037H60.2541C60.5309 29.8037 60.7552 30.0677 60.7552 30.3933C60.7552 30.7189 60.5309 30.9828 60.2541 30.9828H40.206C39.9292 30.9828 39.7048 30.7189 39.7048 30.3933Z" fill="white" fill-opacity="0.39"/>
<path fill-rule="evenodd" clip-rule="evenodd" d="M39.7048 37.4646C39.7048 37.139 39.9292 36.875 40.206 36.875H60.2541C60.5309 36.875 60.7552 37.139 60.7552 37.4646C60.7552 37.7902 60.5309 38.0541 60.2541 38.0541H40.206C39.9292 38.0541 39.7048 37.7902 39.7048 37.4646Z" fill="white" fill-opacity="0.39"/>
<path fill-rule="evenodd" clip-rule="evenodd" d="M39.7048 44.5368C39.7048 44.2112 39.9292 43.9473 40.206 43.9473H60.2541C60.5309 43.9473 60.7552 44.2112 60.7552 44.5368C60.7552 44.8624 60.5309 45.1264 60.2541 45.1264H40.206C39.9292 45.1264 39.7048 44.8624 39.7048 44.5368Z" fill="white" fill-opacity="0.39"/>
<path opacity="0.4" fill-rule="evenodd" clip-rule="evenodd" d="M72.2758 21.5686H12.1313V15.6729H72.2758V21.5686Z" fill="white" fill-opacity="0.39"/>
</svg>
