<svg width="20" height="20" viewBox="0 0 20 20" fill="none" xmlns="http://www.w3.org/2000/svg">
<path d="M19.05 5.95201C18.909 5.82908 18.7347 5.75082 18.5491 5.72718C18.3635 5.70353 18.1751 5.73556 18.0078 5.8192L14.0852 7.77233L10.8102 2.33248C10.726 2.19289 10.6071 2.07743 10.4652 1.99727C10.3233 1.91712 10.163 1.875 10 1.875C9.83699 1.875 9.67674 1.91712 9.5348 1.99727C9.39285 2.07743 9.27403 2.19289 9.18984 2.33248L5.91484 7.77467L1.99375 5.82155C1.82683 5.73865 1.63914 5.7069 1.45424 5.73028C1.26934 5.75366 1.09546 5.83113 0.954429 5.95297C0.813396 6.0748 0.711491 6.23558 0.6615 6.41513C0.61151 6.59467 0.615662 6.78498 0.673434 6.96217L3.56406 15.8184C3.59312 15.9074 3.6418 15.9887 3.70649 16.0563C3.77119 16.124 3.85025 16.1762 3.93784 16.2092C4.02542 16.2422 4.11931 16.2551 4.21255 16.247C4.30579 16.2388 4.39602 16.2099 4.47656 16.1622C4.49609 16.1505 6.49375 14.9997 10 14.9997C13.5062 14.9997 15.5039 16.1505 15.5219 16.1614C15.6024 16.2095 15.6928 16.2389 15.7863 16.2473C15.8798 16.2558 15.974 16.243 16.0618 16.2101C16.1497 16.1771 16.2291 16.1248 16.294 16.057C16.3589 15.9892 16.4076 15.9077 16.4367 15.8184L19.3273 6.96451C19.3868 6.78727 19.3921 6.59636 19.3427 6.41606C19.2934 6.23576 19.1915 6.07423 19.05 5.95201ZM15.4687 14.752C14.5312 14.3544 12.6625 13.7497 10 13.7497C7.3375 13.7497 5.46875 14.3544 4.53125 14.752L2.08672 7.2653L5.60781 9.02076C5.82094 9.12587 6.0657 9.14735 6.29388 9.08098C6.52206 9.01461 6.71712 8.86519 6.84062 8.66217L10 3.41061L13.1594 8.66061C13.2829 8.86344 13.4778 9.01271 13.7058 9.07908C13.9338 9.14544 14.1784 9.12408 14.3914 9.0192L17.9133 7.2653L15.4687 14.752Z" fill="white"/>
</svg>
