<svg width="72" height="72" viewBox="0 0 72 72" fill="none" xmlns="http://www.w3.org/2000/svg">
<rect width="72" height="72" rx="16" fill="#FFBF19"/>
<path d="M52.29 28.7146C52.0362 28.4933 51.7224 28.3525 51.3884 28.3099C51.0544 28.2673 50.7152 28.325 50.4141 28.4755L43.3533 31.9912L37.4583 22.1994C37.3067 21.9482 37.0929 21.7403 36.8374 21.5961C36.5819 21.4518 36.2934 21.376 36 21.376C35.7066 21.376 35.4181 21.4518 35.1626 21.5961C34.9071 21.7403 34.6932 21.9482 34.5417 22.1994L28.6467 31.9954L21.5887 28.4798C21.2883 28.3305 20.9504 28.2734 20.6176 28.3155C20.2848 28.3576 19.9718 28.497 19.718 28.7163C19.4641 28.9356 19.2807 29.225 19.1907 29.5482C19.1007 29.8714 19.1082 30.2139 19.2122 30.5329L24.4153 46.4741C24.4676 46.6343 24.5552 46.7806 24.6717 46.9024C24.7881 47.0241 24.9304 47.1182 25.0881 47.1776C25.2458 47.237 25.4148 47.2602 25.5826 47.2455C25.7504 47.2309 25.9128 47.1787 26.0578 47.0929C26.093 47.0718 29.6887 45.0004 36 45.0004C42.3112 45.0004 45.907 47.0718 45.9394 47.0915C46.0844 47.1781 46.2471 47.231 46.4153 47.2462C46.5836 47.2614 46.7531 47.2384 46.9113 47.1791C47.0695 47.1198 47.2123 47.0257 47.3291 46.9036C47.4459 46.7816 47.5338 46.6348 47.5861 46.4741L52.7892 30.5371C52.8962 30.2181 52.9058 29.8744 52.8169 29.5499C52.7281 29.2253 52.5446 28.9346 52.29 28.7146ZM45.8437 44.5546C44.1562 43.8388 40.7925 42.7504 36 42.7504C31.2075 42.7504 27.8437 43.8388 26.1562 44.5546L21.7561 31.0785L28.0941 34.2384C28.4777 34.4275 28.9183 34.4662 29.329 34.3467C29.7397 34.2273 30.0908 33.9583 30.3131 33.5929L36 24.1401L41.6869 33.5901C41.9091 33.9552 42.26 34.2239 42.6704 34.3433C43.0808 34.4628 43.521 34.4243 43.9045 34.2355L50.2439 31.0785L45.8437 44.5546Z" fill="white"/>
</svg>
